<svg class="icon" viewBox="0 0 1025 1024" xmlns="http://www.w3.org/2000/svg" width="24" height="24"><path d="M1019.52 56.395 966.394 3.258c-2.002-2.002-4.504-2.88-7.139-2.88s-5.137 1-7.149 2.88L856.75 98.614C814.52 69.916 765.397 55.64 716.284 55.64c-64.156 0-128.313 24.429-177.303 73.43l-127.7 127.69c-3.881 3.88-3.881 10.273 0 14.154l340.462 340.452c2.001 2.001 4.514 2.89 7.138 2.89 2.513 0 5.137-1 7.139-2.89l127.69-127.69c86.338-86.461 96.49-220.166 30.454-317.647l95.356-95.366c3.881-3.993 3.881-10.386 0-14.267zM833.322 423.41l-74.43 74.44-234.076-234.076 74.43-74.43c31.2-31.2 72.807-48.49 117.038-48.49 44.231 0 85.705 17.168 117.038 48.49 31.2 31.2 48.49 72.807 48.49 117.038 0 44.231-17.29 85.705-48.49 117.028zM594.987 554.98c-3.88-3.88-10.274-3.88-14.155 0l-83.458 83.459-113.157-113.147 83.581-83.581c3.891-3.891 3.891-10.284 0-14.165l-45.61-45.61c-3.88-3.891-10.274-3.891-14.155 0l-83.581 83.58-53.882-53.882c-2.002-2.001-4.514-2.88-7.139-2.88-2.512 0-5.137 1.001-7.139 2.88l-127.567 127.68c-86.338 86.46-96.49 220.166-30.454 317.657L2.914 952.337c-3.88 3.881-3.88 10.274 0 14.155l53.137 53.127c2.002 2.001 4.514 2.88 7.139 2.88 2.635 0 5.137-1.001 7.139-2.88l95.366-95.357c42.22 28.698 91.353 42.986 140.466 42.986 64.156 0 128.313-24.44 177.303-73.43l127.69-127.69c3.88-3.89 3.88-10.273 0-14.154l-53.882-53.883 83.58-83.58c3.882-3.882 3.882-10.275 0-14.156l-45.865-45.375zm-171.92 278.685c-31.2 31.2-72.807 48.49-117.039 48.49-44.231 0-85.705-17.167-117.038-48.49-31.2-31.2-48.49-72.806-48.49-117.038 0-44.23 17.168-85.715 48.49-117.038l74.43-74.43 234.077 234.076-74.43 74.43zm0 0" fill="#667085"/></svg>