<svg class="icon" viewBox="0 0 1024 1024" xmlns="http://www.w3.org/2000/svg" width="200" height="200"><path d="M0 750.933V273.067A273.067 273.067 0 0 1 273.067 0h477.866A273.067 273.067 0 0 1 1024 273.067v477.866A273.067 273.067 0 0 1 750.933 1024H273.067A273.067 273.067 0 0 1 0 750.933z" fill="#FFF"/><path d="M0 750.933V273.067A273.067 273.067 0 0 1 273.067 0h477.866A273.067 273.067 0 0 1 1024 273.067v477.866A273.067 273.067 0 0 1 750.933 1024H273.067A273.067 273.067 0 0 1 0 750.933zm34.133 0q0 98.987 69.974 168.96 69.973 69.974 168.96 69.974h477.866q98.987 0 168.96-69.974 69.974-69.973 69.974-168.96V273.067q0-98.987-69.974-168.96-69.973-69.974-168.96-69.974H273.067q-98.987 0-168.96 69.974-69.974 69.973-69.974 168.96v477.866z" fill="#F0F0F0"/><path d="m433.425 417.621 77.346 93.457 227.806-267.605c12.05-16.043 17.75-24.474 12.05-38.127a41.574 41.574 0 0 0-36.216-25.532 32.53 32.53 0 0 0-24.303 8.943L433.425 417.621z" fill="#BDB9B4"/><path d="M637.406 462.302 275.388 115.029a48.23 48.23 0 0 0-28.467-17.066 37.205 37.205 0 0 0-35.055 22.528c-5.7 13.653-1.605 23.244 10.888 41.164L510.84 511.25 296.414 774.622c-11.367 11.742-15.565 28.672-11.025 44.373 5.905 14.37 19.968 23.689 35.498 23.552a33.86 33.86 0 0 0 25.532-12.458l290.782-270.336c28.911-26.01 29.013-71.34.205-97.451z" fill="#B31B1B"/><path d="M801.075 861.218 510.09 510.498l-77.312-93.423-47.446 42.803a70.417 70.417 0 0 0 0 101.206l369.084 355.67c6.554 6.826 15.872 10.341 25.327 9.59a35.421 35.421 0 0 0 32.529-22.766 43.008 43.008 0 0 0-11.196-42.326z" fill="#BDB9B4"/></svg>