<svg class="icon" viewBox="0 0 1024 1024" xmlns="http://www.w3.org/2000/svg" width="200" height="200"><path d="M195.973 307.2H66.663v44.237h111.144a14.746 14.746 0 0 1 0 29.511H66.662v44.237h111.145a14.746 14.746 0 0 1 0 29.512H66.662v44.237h129.332a58.941 58.941 0 0 0 46.039-95.847 58.778 58.778 0 0 0 8.478-59.433 58.982 58.982 0 0 0-54.517-36.454h-.041zm765.768 0h-66.765v191.754h66.765V307.2zm-210.37 0h-66.786l-82.084 191.754h66.765l48.742-113.869 48.763 113.87h66.765L751.432 307.2h-.062zm-284.878 0h-66.785l-82.125 191.754h66.786l48.763-113.869 48.762 113.87h66.765L466.575 307.2h-.061z" fill="#0F6EBA"/><path d="m261.079 607.519-14.91-48.026h24.474l14.828 48.026H261.1zm57.037 119.214 11.612-47.862h21.504l-11.715 47.862h-21.401zm63.856-47.862h21.136l8.397 47.862h-21.443l-8.09-47.862zM260.24 660.685 243.2 616.243h23.736l19.252 44.442h-25.949zm-4.649 34.304 4.24-26.317h24.494l-5.51 36.209c-.655 4.915-5.59 13.148-9.318 16.015a28.426 28.426 0 0 1-18.78 6.472h-6.082v-20.849s3.072-1.003 4.014-1.434a14.52 14.52 0 0 0 6.901-10.035" fill="#18130F"/><path d="M411.423 587.162H378.51l3.687-7.27h28.365v-20.399H293.458v134.922c-.287 7.988-7.25 12.39-9.83 12.76h-.574v20.93h6.86c7.128.061 14.01-2.56 19.252-7.373a28.467 28.467 0 0 0 8.786-19.845V579.85h36.454l-3.338 7.291h-28.61v84.419h31.948v23.961c.41 9.011-5.181 11.674-5.181 11.674l-1.495.758v20.193h3.338c9.933-.737 18.616-7.086 20.5-9.626a28.467 28.467 0 0 0 7.517-19.046l-.205-27.853h4.608a27.034 27.034 0 0 0 19.743-7.864c3.973-3.113 8.376-12.247 8.233-19.456l-.041-57.14zm-66.724 21.135h43.336v10.895h-43.357v-10.895zm39.24 38.932c-2.397 2.048-4.71 4.096-9.565 4.015h-29.696v-10.916h43.008s-1.228 4.751-3.768 6.922zM61.44 587.592V567.93h9.626l3.338-7.27h27.71l-1.803 6.553h47.145v20.378h-25.969v7.29h25.232v19.64h-24.863l7.086 5.817a7.434 7.434 0 0 0 5.94 2.15h12.574v20.378h-21.504a39.731 39.731 0 0 1-5.693-.266 6.042 6.042 0 0 1-2.827-1.536l-11.059-10.527-8.909 10.179c-1.413 1.433-4.3 2.191-8.499 2.191H62.177v-19.66h17.408a5.94 5.94 0 0 0 4.834-2.172l6.307-6.553H61.44v-19.66h31.191v-7.271H61.44zm91.197-25.477v80.076h47.719c18.125 0 28.63-15.585 28.63-27.279v-52.797h-76.349zm50.422 45.895c-.143 3.769-.86 8.622-5.038 11.428-5.775 3.891-9.134 3.072-9.134 3.072h-9.564v-38.543h23.716v24.043zM65.085 648.335v79.156H197.96c14.602 0 28.016-12.288 27.996-29.266v-49.89H65.086zm127.57 57.12c-1.638 1.535-5.14 2.825-9.154 3.276H91.77v-10.179h105.308a16.998 16.998 0 0 1-4.362 6.902m4.137-26.562H91.79v-9.421h105.022l.04 9.42zm238.1 44.871V631.89h-8.499v-21.402h2.847a4.567 4.567 0 0 0 3.4-1.433 16.998 16.998 0 0 0 2.969-5.346l8.5-22.487h-16.057v-21.094h71.885v21.115h-32.4l-7.004 17.94h41.677v81.183c0 4.833-.922 20.419-12.124 30.863-13.333 12.493-26.112 12.575-31.027 12.575l-24.167-.061zm44.851-103.403h-23.203v82.206h5.16c2.069 0 8.5-2.457 11.94-5.836a18.964 18.964 0 0 0 6.083-15.135V620.36zm38.912 32.604H507.74v-22.078h10.998V581.12H507.74v-22.057h85.586V581.1h-7.373v49.766h6.595v22.139h-6.656v71.27H562.77v-71.27h-20.111v33.71a40.407 40.407 0 0 1-12.043 28.2c-11.57 11.203-22.876 10.712-22.876 10.712v-21.73a35.656 35.656 0 0 0 6.492-5.672 18.207 18.207 0 0 0 4.506-13.353v-31.908zM562.77 581.1h-20.111v49.766h20.11V581.1zm115.61-15.32-.144-6.717h32.236l.102 6.717h62.218v33.731h-24.576v-13.046H637.358v14.172h-24.084V565.78h65.106zm5.079 27.116-4.506 15.585c-1.434 4.956-7.086 13.886-15.012 18.903-5.12 3.195-15.237 7.7-24.207 7.7h-26.215v-20.786h22.549c4.792.204 9.523-1.086 13.578-3.625 2.744-1.844 6.922-7.332 7.598-9.933l1.966-7.824 24.249-.02zm-14.173 52.224H763.7v53.473a8.655 8.655 0 0 0 .942 4.158c.615 1.065 2.253 1.597 5.018 1.597h6.43v21.77h-14.172c-7.557 0-12.8-1.433-15.749-4.26a20.009 20.009 0 0 1-5.755-9.912 41.89 41.89 0 0 1-1.31-9.298v-36.761h-71.824l-3.87 27.566a41.41 41.41 0 0 1-14.623 24.187c-5.366 4.505-15.585 8.499-21.484 8.499h-10.997v-21.79h3.01c4.506 0 10.896-3.626 12.083-4.506 1.23-.86 7.086-6.984 7.824-11.879l2.846-22.057h-28.487v-20.746h30.576l1.065-5.673h24.843l-.779 5.632zm32.277-51.59h23.572l2.253 8.357a15.852 15.852 0 0 0 5.816 7.72 32.903 32.903 0 0 0 12.964 4.076h29v20.767h-30.761c-7.086 0-18.616-3.85-24.658-9.114-6.492-5.673-12.759-13.824-13.721-17.449l-4.465-14.336zm94.904-32.317h60.478v60.765a28.61 28.61 0 0 1-1.536 9.01c-1.024 3.073-2.397 5.039-4.014 5.94l-3.707 2.376a32.906 32.906 0 0 1 7.168 7.332 14.877 14.877 0 0 1 2.11 8.171v24.822c.163 5.673-3.851 20.48-9.524 26.112a47.68 47.68 0 0 1-22.692 13.332l-6.676.799v7.086h-21.402l-.205-165.745zm21.545 68.035h10.65a5.366 5.366 0 0 0 4.403-2.089c1.126-1.393 1.7-4.137 1.68-8.233v-38.298H817.91l.102 48.62zm0 19.415v51.978s5.182.246 11.018-5.038c4.424-4.014 5.571-11.632 5.673-13.803l.103-24.33c0-3.318-.533-5.633-1.598-6.902a5.222 5.222 0 0 0-4.239-1.905h-10.957zm42.844 76.902v-18.718a40.149 40.149 0 0 0 5.673-3.953 19.005 19.005 0 0 0 6.574-10.404l8.151-32.788 23.573-.082-10.465 41.779c-10.056 22.815-33.588 24.105-33.588 24.105m1.188-128.778v-31.458h34.652v-7.086h25.764v7.086h37.11v31.376l-22.303.082v-12.33H884.04v12.33h-22.078zm1.024 27.402-.102-19.415 97.956-.082v19.497h-97.874zm.348 11.407h98.222v19.333h-20.193v30.618c0 5.673 3.953 12.35 6.062 14.602 6.062 6.41 14.95 6.021 14.95 6.021l.185 20.399a44.155 44.155 0 0 1-29.84-10.65c-9.42-8.049-13.68-22.2-13.68-26.931v-34.1h-55.644l-.062-19.292z" fill="#18130F"/></svg>