<svg class="icon" viewBox="0 0 1024 1024" xmlns="http://www.w3.org/2000/svg" width="200" height="200"><path d="M415.185 477.696V792.25c-22.248 106.496-170.449 79.034-171.1 1.769-.699-97.047 0-193.396 0-289.792V392.564c0-13.963-3.166-24.995-16.012-33.792-24.995-17.78-54.924 3.165-55.576 28.859-1.396 34.443-.698 68.189-1.396 102.213 0 26.81 0 52.923.698 79.686C153.321 687.523 3.398 667.927 0 570.228v-81.733c0-26.81 54.924-33.094 52.224 6.981-1.769 19.829-.652 40.309-1.35 59.904-.651 35.096 55.622 58.74 68.887 1.35.699-47.29.699-94.58.699-142.336 0-59.857 17.78-108.497 84.247-113.012 28.812-2.467 47.942 8.983 66.374 28.858 6.982 6.982 23.645 29.23 24.343 53.527 0 22.342.652 44.59.652 67.119 0 44.59-.652 89.367-.652 133.958 0 28.858.652 57.437.652 85.597 0 35.793 0 72.052-.652 107.846-.698 46.592 58.74 45.94 68.236-.699 0-54.923.651-109.195.651-164.119 0-135.354-.651-270.662-.651-405.97 0-13.963-2.048-52.922 5.818-67.118 41.425-96.349 167.33-54.272 168.448 25.46 2.467 163.468 0 328.751.651 492.638 0 56.785-48.407 44.59-51.106 22.341 0-170.496 0-341.643.698-511.86-2.467-42.775-68.888-36.91-72.75-6.284-1.35 35.142-.652 70.936-1.35 106.03v208.757h.698l.465.233z" fill="#AE70FF"/><path d="M609.745 475.183v231.005-545.14c21.644-107.195 169.798-79.268 170.45-2.002.698 96.349 0 193.396.698 289.745 0 36.957 0 74.1-.698 111.011 0 14.662 3.817 24.995 16.663 34.444 24.343 17.361 54.272-3.119 55.622-29.23 1.35-33.793.652-67.585.652-102.261v-79.22c18.478-117.993 168.029-98.398 171.147-.699v296.076c0 26.81-54.272 33.14-51.805-6.982 1.397-20.48 0-254.603.698-275.13 1.35-34.444-55.621-58.787-68.887-.698V537.74c0 60.602-17.827 108.544-84.899 113.71-63.302 1.397-88.715-40.308-90.763-82.385V282.857c0-36.492 0-72.053.698-107.846.651-46.592-58.787-46.592-68.888.698V816.5c0 13.964 2.002 52.923-5.213 67.119-41.425 96.349-167.936 54.272-169.1-25.46v-75.87c3.166-51.106 48.408-38.958 50.456-17.361v90.065c2.467 42.822 68.887 37.61 72.052 6.33 1.35-35.141 1.35-70.283 1.35-106.076V475.229h-.233z" fill="#AE70FF"/></svg>