<svg class="icon" viewBox="0 0 1024 1024" xmlns="http://www.w3.org/2000/svg" width="200" height="200"><path d="M254.35 268.97v108.26h185.572V268.97H254.35z" fill="#32d2a3"/><path d="M187.904 106.667A85.333 85.333 0 0 0 102.571 192v411.193a85.333 85.333 0 0 0 85.333 85.333h43.435v95.318a69.006 69.006 0 1 0 49.123 0v-95.29h121.6v95.29a69.006 69.006 0 1 0 49.152 0v-95.29h121.6v95.29a69.006 69.006 0 1 0 49.124 0v-95.29h121.628v95.29a69.006 69.006 0 1 0 49.124 0v-95.29h43.406a85.333 85.333 0 0 0 85.333-85.333V192a85.333 85.333 0 0 0-85.333-85.333H187.904zm25.884 430.222h596.395a40.533 40.533 0 0 1 0 81.067H213.817a40.533 40.533 0 0 1 0-81.067zm0-348.985h266.667c22.386 0 40.533 18.148 40.533 40.533v189.327c0 22.385-18.147 40.533-40.533 40.533H213.817a40.533 40.533 0 0 1-40.533-40.533V228.437c0-22.385 18.147-40.533 40.533-40.533zm439.382 0c22.386 0 40.533 18.148 40.533 40.533v189.327a40.533 40.533 0 0 1-81.067 0V228.437c0-22.385 18.12-40.533 40.534-40.533zm116.48 40.533a40.533 40.533 0 0 1 81.066 0v189.327a40.533 40.533 0 0 1-81.066 0V228.437z" fill="#32d2a3"/></svg>