<svg class="icon" viewBox="0 0 1024 1024" xmlns="http://www.w3.org/2000/svg" width="200" height="200"><path d="M907.83 451.691c-5.151 0-10.494.384-16.093 1.216a81.105 81.105 0 0 0-53.846 33.882c-10.622 15.58-14.333 33.721-10.43 51.062 7.135 31.93 32.602 45.496 49.43 54.486 4.704 2.495 9.47 4.863 13.374 7.902 16.733 13.022 22.076 38.97 12.478 60.373-10.878 24.316-40.889 36.25-64.18 37.05l-3.296.063c-31.642 0-65.747-15.58-96.078-43.864-22.94-21.372-42.2-48.055-59.316-74.162C754.579 520 799.85 423.345 799.85 319.94 799.85 143.525 670.69 0 511.904 0S223.958 143.525 223.958 319.94c0 103.405 45.272 200.059 119.978 259.791-17.117 26.075-36.41 52.758-59.35 74.162-30.298 28.251-64.403 43.832-96.045 43.832l-3.296-.064c-23.291-.8-53.302-12.733-64.244-37.049-9.598-21.404-4.159-47.351 12.478-60.373 3.967-3.039 8.734-5.407 13.437-7.902 16.83-8.99 42.297-22.556 49.431-54.422a64.884 64.884 0 0 0-10.43-51.126 81.105 81.105 0 0 0-53.846-33.882 107.564 107.564 0 0 0-16.093-1.216c-59.317 0-102.796 52.342-113.45 136.647-9.919 78.705 9.598 154.85 52.182 203.705 33.593 38.585 79.92 59.285 136.582 59.957 14.973 0 30.17-1.471 45.56-4.415a241.587 241.587 0 0 1-64.34 40.409l-5.055 2.08c-10.974 4.542-23.484 9.661-35.194 19.196-20.156 16.412-29.754 40.728-25.275 63.38 4.383 22.395 21.852 40.664 45.591 47.703 14.302 4.319 31.323 3.967 47.735 1.503 99.214-14.525 192.188-68.723 255.057-148.676 22.875-29.114 41.976-63.028 56.533-99.757a400.82 400.82 0 0 0 56.533 99.725c62.869 79.985 155.811 134.183 255.057 148.708 7.518 1.12 15.165 1.952 22.747 1.952 9.055 0 17.213-1.12 24.956-3.423 23.771-7.039 41.24-25.34 45.591-47.64 4.543-22.747-5.119-47.063-25.275-63.54-11.678-9.47-24.188-14.589-35.194-19.132l-5.023-2.08a241.843 241.843 0 0 1-64.627-40.632 258.703 258.703 0 0 0 48.406 4.607h.064c54.038-.64 100.366-21.34 133.96-59.925 42.583-48.854 62.068-124.968 52.15-203.705-10.622-84.305-54.07-136.647-113.42-136.647zM69.49 577.364c5.535-24.124 18.652-61.685 46.487-61.685 2.048 0 4.223.16 6.463.512 5.727.864 11.006 6.047 11.486 7.679-.768 3.263-9.438 7.902-17.149 11.998-7.039 3.775-15.037 8.03-22.556 13.885-9.95 7.742-18.236 17.149-24.731 27.61zm851.36 172.64c-21.596 24.795-50.678 37.56-88.303 38.008-37.081 0-76.914-12.477-121.737-38.073a31.994 31.994 0 1 0-44.856 41.305c32.41 69.523 90.863 126.28 160.418 155.682l5.599 2.304c7.615 3.167 14.813 6.079 19.164 9.598l.544.512c-4.735.96-12.381.16-18.876-.768-83.185-12.19-161.218-57.749-214.072-124.968-42.872-54.486-70.867-133.095-74.866-210.2a31.994 31.994 0 0 0-63.924 0c-4 77.105-31.994 155.714-74.866 210.2-52.854 67.187-130.855 112.779-214.072 124.968-6.175.896-11.838 2.528-18.684.608l.32-.288c4.383-3.551 11.581-6.495 19.196-9.662l5.599-2.304c69.555-29.402 127.976-86.16 160.45-155.682a31.994 31.994 0 0 0-44.888-41.305c-44.823 25.596-84.624 38.073-123.497 38.073h-.096c-35.833-.448-64.883-13.213-86.48-38.009a140.23 140.23 0 0 1-21.82-34.553c24.028 27.45 61.141 44.791 101.934 46.167l5.439.096c47.927 0 97.517-21.692 139.717-61.044 36.538-34.074 63.988-77.394 86.096-112.171a31.994 31.994 0 0 0-9.982-44.248c-71.762-45.112-116.362-131.08-116.362-224.31 0-141.126 100.461-255.952 223.958-255.952S735.862 178.814 735.862 319.94c0 93.23-44.6 179.166-116.394 224.31a32.058 32.058 0 0 0-9.982 44.248c22.076 34.777 49.558 78.097 86.064 112.139 42.232 39.384 91.822 61.108 139.717 61.108l5.471-.128c40.793-1.376 77.938-18.716 101.933-46.167-5.855 12.99-13.15 24.635-21.82 34.553zm8.703-200.283c-7.487-5.823-15.485-10.078-22.524-13.853-7.679-4.096-16.381-8.735-17.117-11.39.448-2.24 5.76-7.423 11.454-8.319 2.24-.32 4.415-.48 6.463-.48 27.867 0 40.952 37.593 46.52 61.685a105.996 105.996 0 0 0-24.796-27.643z" fill="#5465CF"/><path d="M575.8919999999999 447.916a31.994 31.994 0 1 0 63.988 0 31.994 31.994 0 1 0-63.988 0ZM383.928 447.916a31.994 31.994 0 1 0 63.988 0 31.994 31.994 0 1 0-63.988 0Z" fill="#5465CF"/></svg>