<svg class="icon" viewBox="0 0 1024 1024" xmlns="http://www.w3.org/2000/svg" width="200" height="200"><path d="M128 286.165v376.662c0 19.669 9.813 37.973 26.71 47.786l324.693 186.88c16.81 9.899 37.888 9.899 53.333 0l324.693-188.288c16.854-9.813 26.71-28.117 26.71-47.786V286.165c0-19.669-9.814-37.973-26.71-47.786L532.736 50.048c-16.853-9.813-37.93-9.813-53.333 0l-324.694 188.33C137.813 248.193 128 266.497 128 286.166z" fill="#0F2B46"/><path d="M649.728 981.333V801.621l-189.739 70.102" fill="#0F2B46"/><path d="M382.037 295.68a55.125 55.125 0 0 1 77.312 0c23.894 22.443 23.894 59.008 0 81.493a55.125 55.125 0 0 1-77.312 0 57.685 57.685 0 0 1 0-81.493zm238.208 142.25a55.125 55.125 0 0 1 77.312 0c23.894 22.486 23.894 59.051 0 81.494a55.125 55.125 0 0 1-77.312 0 55.296 55.296 0 0 1 0-81.493zM382.037 580.268a55.125 55.125 0 0 1 77.312 0c23.894 22.485 23.894 59.008 0 81.493a55.125 55.125 0 0 1-77.312 0c-22.485-21.077-22.485-59.008 0-81.493z" fill="#FFF"/><path d="m459.99 390.187 161.62 94.165 26.71-15.488-161.621-94.165-26.71 15.488zM632.874 532.48l-146.176 84.31-26.71-15.446 146.176-84.352 26.71 15.488z" fill="#FFF"/></svg>