<svg class="icon" viewBox="0 0 1024 1024" xmlns="http://www.w3.org/2000/svg" width="200" height="200"><path d="m368.76 621.76 24.07 132.54c9.54 52.6 55.34 90.84 108.79 90.84 51.49 0 96.12-35.64 107.52-85.85l1.02-5.03 23.61-132.33 100.48 22.34 5.61 1.36c61.12 16.18 104.55 70.31 107.08 133.49l.12 5.77v60.26l-.12 3.46c-1.71 22.71-19.72 40.78-42.42 42.56l-3.62.14H200.86l-3.46-.12c-22.71-1.71-40.78-19.72-42.56-42.42l-.14-3.62v-60.26l.12-5.77c2.53-63.17 45.96-117.31 107.08-133.49l5.61-1.36 101.25-22.51zm247.52-468.98 3.46.12c22.71 1.71 40.78 19.72 42.56 42.42l.14 3.62v138.47h-323.1V198.94l.12-3.46c1.71-22.71 19.72-40.78 42.42-42.56l3.62-.14h230.78zm-115.39 23.08c-11.7 0-21.55 8.76-22.92 20.38l-.16 2.7v23.08h-23.08c-12.75.01-23.07 10.36-23.05 23.1.01 11.68 8.75 21.51 20.35 22.89l2.7.16h23.08v23.08c.01 12.75 10.36 23.07 23.1 23.05 11.68-.01 21.51-8.75 22.89-20.35l.16-2.7v-23.08h23.08c12.75-.01 23.07-10.36 23.05-23.1-.01-11.68-8.75-21.51-20.35-22.89l-2.7-.16h-23.08v-23.08c.01-12.75-10.33-23.08-23.07-23.08z" fill="#009FFF"/><path d="M616.28 106.62c50.98 0 92.31 41.33 92.31 92.31v230.79a207.068 207.068 0 0 1-61.78 147.8l97.46 21.69c87.02 19.34 148.94 96.52 148.95 185.67v60.26c0 50.98-41.33 92.31-92.31 92.31H200.86c-50.98 0-92.31-41.33-92.31-92.31v-60.26c.01-89.15 61.93-166.33 148.95-185.67l97.46-21.69a207.051 207.051 0 0 1-61.78-147.8V198.94c0-50.98 41.33-92.31 92.31-92.31l230.79-.01zM368.76 621.76l-101.25 22.5c-63.81 14.18-110.07 69.54-112.69 134.85l-.12 5.79v60.24c-.01 24.15 18.61 44.23 42.7 46.04l3.46.12H800.9c24.15.01 44.23-18.61 46.04-42.7l.12-3.46v-60.26c0-65.36-44.01-122.53-107.2-139.26l-5.61-1.36-100.48-22.34-23.61 132.33c-9.39 52.58-55.12 90.88-108.54 90.88-53.45 0-99.25-38.24-108.79-90.84l-24.07-132.53zm132.13 15.67c-29.55.04-58.77-6.26-85.69-18.46l23.06 127.09c5.28 29.15 29.77 50.94 59.34 52.8l4.04.12c29.54-.01 55.26-20.2 62.27-48.9l.83-3.92 22.8-127.62a207.062 207.062 0 0 1-86.65 18.89zm66.65-60.51 5.72-2.72c2.31-1.15 4.57-2.35 6.81-3.62l-.92.51c49.68-27.49 81.27-79.05 83.2-135.79l.09-5.56v-46.16h-323.1v46.16c-.04 53.71 26.66 103.94 71.22 133.96l.53.35 4.85 3.12c1.95 1.21 3.93 2.38 5.93 3.51l-4.11-2.38c1.71 1.02 3.44 2.01 5.17 2.98l-1.06-.6c4.55 2.56 9.23 4.89 14.01 6.99l-1.5-.69c1.62.74 3.23 1.45 4.85 2.12l-3.35-1.43c2.01.9 4.06 1.73 6.12 2.54l-2.77-1.11c2.08.85 4.13 1.66 6.23 2.42L442 580.2c3.77 1.48 7.6 2.82 11.47 4.02l-4.85-1.59c2.35.81 4.73 1.57 7.15 2.26l-2.31-.69c1.78.55 3.55 1.06 5.33 1.55l-3.02-.85c2.01.6 4.06 1.15 6.09 1.64l-3.07-.78c2.35.65 4.75 1.22 7.15 1.75l-4.08-.97c1.98.51 3.97.95 5.95 1.38l-1.87-.42c2.65.58 5.33 1.11 8.05 1.55l-6.19-1.15c2.31.48 4.66.92 7.02 1.29l-.83-.14c2.08.37 4.15.67 6.25.92l-5.42-.78c2.61.44 5.24.78 7.87 1.08l-2.45-.3c2.08.28 4.13.48 6.19.69l-3.74-.39c2.08.23 4.15.44 6.28.58l6.35.35 5.56.09 5.54-.09 6.32-.35c2.34-.17 4.67-.38 6.99-.65l-4.52.46c2.01-.18 4.02-.39 6-.65l-1.48.18c5.54-.64 11.04-1.56 16.48-2.77l-2.45.51c2.31-.46 4.62-1.02 6.92-1.62l-4.48 1.08c2.01-.46 4.04-.92 6.02-1.45l-1.55.39c2.05-.53 4.08-1.08 6.12-1.68l-4.57 1.29c2.08-.55 4.15-1.15 6.21-1.78l-1.64.48c2.45-.72 4.85-1.5 7.27-2.33l-5.63 1.85c2.7-.83 5.38-1.73 8.03-2.7l-2.4.85c1.92-.69 3.83-1.38 5.75-2.12l-3.35 1.27c2.15-.81 4.27-1.62 6.37-2.49l-3.02 1.22c2.6-1.03 5.19-2.12 7.73-3.27zm48.74-424.14H385.49c-24.15-.01-44.23 18.61-46.04 42.7l-.12 3.46v138.47h323.1V198.94c.01-24.15-18.61-44.23-42.7-46.04l-3.45-.12zm-115.39 23.08c12.75 0 23.08 10.33 23.08 23.08v23.08h23.08c12.75.01 23.07 10.34 23.07 23.09-.01 12.74-10.33 23.06-23.07 23.07h-23.08v23.08c0 12.75-10.33 23.08-23.08 23.08-12.75 0-23.08-10.33-23.08-23.08v-23.08h-23.08c-12.75-.01-23.07-10.34-23.07-23.09.01-12.74 10.33-23.06 23.07-23.07h23.08v-23.08c0-12.75 10.33-23.08 23.08-23.08z"/></svg>