<svg class="icon" viewBox="0 0 1024 1024" xmlns="http://www.w3.org/2000/svg" width="200" height="200"><path d="M883.36 784H49.76a32 32 0 0 1-32-32V176a32 32 0 0 1 32-32h832a32 32 0 0 1 32 32l1.76 576a32 32 0 0 1-32.16 32z" fill="#FAEFDE"/><path d="m913.76 204.32-448 320L17.76 208v-16c0-17.6 14.4-48 32-48h832c17.6 0 32 26.72 32 44.32z" fill="#FFF7F0"/><path d="M897.76 784h-864c-8.8 0-16-3.52-16-12.32V768a64 64 0 0 1 64-64h769.6a64 64 0 0 1 64 64v3.68c0 8.8-8.8 12.32-17.6 12.32z" fill="#EFD8BE"/><path d="M624.8 752a192 192 0 1 0 384 0 192 192 0 1 0-384 0Z" fill="#72CAAF"/><path d="M48 140.32h833.76a32 32 0 0 1 32 32 35.36 35.36 0 0 1-32 35.68h-832A36.8 36.8 0 0 1 16 172.32a32 32 0 0 1 32-32z" fill="#FFF"/><path d="M144.8 674.72a16 16 0 0 0-16 16v32a16 16 0 1 0 32 0v-32a16 16 0 0 0-16-16zm-80 0a16 16 0 0 0-16 16v32a16 16 0 0 0 32 0v-32a16 16 0 0 0-16-16zm160 0a16 16 0 0 0-16 16v32a16 16 0 0 0 32 0v-32a16 16 0 0 0-16-16zm80 0a16 16 0 0 0-16 16v32a16 16 0 0 0 32 0v-32a16 16 0 0 0-16-16zm80 0a16 16 0 0 0-16 16v32a16 16 0 0 0 32 0v-32a16 16 0 0 0-16-16zm80 0a16 16 0 0 0-16 16v32a16 16 0 0 0 32 0v-32a16 16 0 0 0-16-16zm80 0a16 16 0 0 0-16 16v32a16 16 0 0 0 32 0v-32a16 16 0 0 0-16-16z" fill="#8D6C9F"/><path d="M928.8 576.96V178.72a48 48 0 0 0-48-48h-832a48 48 0 0 0-48 48v576a48 48 0 0 0 48 48h566.24A208 208 0 1 0 928.8 576.96zm-880-414.24h832a16 16 0 0 1 16 16v19.52l-413.12 299.2a32 32 0 0 1-37.6 0L32.8 198.24v-19.52a16 16 0 0 1 16-16zm0 608a16 16 0 0 1-16-16v-86.88L314.08 496a16 16 0 0 0-16-27.36L32.8 630.24V237.76l394.56 285.6a64 64 0 0 0 75.04 0l394.4-285.6V560a208 208 0 0 0-131.2-9.6l-133.28-81.28a16 16 0 0 0-21.92 5.28 16 16 0 0 0 5.28 21.6l112 67.84A208 208 0 0 0 608.8 752a183.68 183.68 0 0 0 .96 18.72zM816.8 928a176 176 0 0 1-168.64-125.28 161.76 161.76 0 0 1-6.24-32A147.2 147.2 0 0 1 640.8 752a176 176 0 0 1 120.16-166.88 181.6 181.6 0 0 1 46.88-9.12h8.96a174.72 174.72 0 0 1 80 19.2 164.8 164.8 0 0 1 32 20.96A176 176 0 0 1 816.8 928z" fill="#8D6C9F"/><path d="M860.16 660.64a16 16 0 0 0-22.56 22.56l52.64 52.8H832.8a112 112 0 0 0-112 112 16 16 0 0 0 32 0 80 80 0 0 1 80-80h57.44l-52.64 52.64a16 16 0 1 0 22.56 22.56l80-80a16 16 0 0 0 0-22.56z" fill="#F9EFDE"/></svg>