<svg class="icon" viewBox="0 0 1024 1024" xmlns="http://www.w3.org/2000/svg" width="200" height="200"><path d="M510.119 438.866q135.42 0 253.144-24.575t185.722-72.574v97.15q0 39.422-58.846 73.149t-159.995 53.438-219.993 19.712-219.994-19.712-159.995-53.438-58.846-73.15v-97.149q67.998 47.999 185.723 72.574t253.144 24.575zm0 438.867q135.42 0 253.144-24.576t185.722-72.573v97.149q0 39.422-58.846 73.15t-159.995 53.438-219.993 19.711-219.994-19.711-159.995-53.439-58.846-73.15v-97.148q67.998 47.998 185.723 72.573t253.144 24.576zm0-219.45q135.42 0 253.144-24.575t185.722-72.574v97.15q0 39.422-58.846 73.15T730.144 784.87 510.15 804.583 290.157 784.87t-159.995-53.438-58.846-73.15v-97.149q67.998 47.999 185.723 72.574t253.144 24.575zm0-658.251q118.844 0 219.993 19.711t159.995 53.439 58.846 73.15v73.15q0 39.422-58.846 73.149t-159.995 53.438-219.993 19.712-219.994-19.712-159.995-53.438-58.846-73.15v-73.15q0-39.422 58.846-73.15t159.995-53.438T510.12.032z" fill="#1296db"/></svg>