<svg class="icon" viewBox="0 0 1024 1024" xmlns="http://www.w3.org/2000/svg" width="200" height="200"><path d="M938.667 512a426.667 426.667 0 0 1-291.84 404.48 22.187 22.187 0 0 1-19.2-2.987 21.76 21.76 0 0 1-8.96-17.493V782.08a170.667 170.667 0 0 0-21.334-87.893 10.667 10.667 0 0 1 0-11.52 11.52 11.52 0 0 1 8.534-5.974C709.973 666.027 768 624.64 768 512a200.96 200.96 0 0 0-50.773-143.36 183.467 183.467 0 0 0 8.106-51.2 184.747 184.747 0 0 0-6.4-46.08A20.907 20.907 0 0 0 696.32 256a189.867 189.867 0 0 0-104.107 50.347 422.827 422.827 0 0 0-160.426 0A189.867 189.867 0 0 0 327.68 256a20.907 20.907 0 0 0-22.613 15.36 184.747 184.747 0 0 0-6.4 46.08 183.467 183.467 0 0 0 8.106 51.2A200.96 200.96 0 0 0 256 512c0 118.613 64.427 158.293 182.613 168.107a158.293 158.293 0 0 0-29.44 65.28v5.12a29.013 29.013 0 0 0 0 5.973 25.173 25.173 0 0 1-27.306 21.76 42.667 42.667 0 0 1-18.347-5.12 227.84 227.84 0 0 1-60.587-53.76A430.507 430.507 0 0 0 268.8 684.8a116.907 116.907 0 0 0-25.173-16.64 20.907 20.907 0 0 0-20.48 0 21.333 21.333 0 0 0-9.814 17.92v2.56a21.333 21.333 0 0 0 9.814 17.92 193.707 193.707 0 0 1 39.253 44.8 282.027 282.027 0 0 0 67.84 73.387 105.813 105.813 0 0 0 59.733 17.92h15.36V896a21.76 21.76 0 0 1-8.96 17.493 22.187 22.187 0 0 1-19.2 2.987A426.667 426.667 0 1 1 938.667 512z"/></svg>