<svg class="icon" viewBox="0 0 6536 1024" xmlns="http://www.w3.org/2000/svg" width="1276.563" height="200"><path d="M768.86 268.528h36.949l105.316-105.316 5.164-44.73C720.275-54.55 421.127-35.859 248.096 160.156c-48.076 54.404-82.915 119.208-101.97 189.322 11.71-4.8 24.728-5.6 36.947-2.182l210.634-34.766s10.691-17.746 16.292-16.655c93.679-102.917 251.363-114.918 359.589-27.348h-.728z" fill="#EA4335"/><path d="M1061.172 349.48c-24.22-89.17-73.896-169.322-142.992-230.562L770.388 266.71c62.404 50.985 97.97 127.863 96.443 208.451v26.256c72.66 0 131.573 58.914 131.573 131.573s-58.913 131.573-131.573 131.573H603.685l-26.256 26.62v157.83l26.256 26.256h263.146c188.959 1.455 343.37-150.556 344.825-339.515.872-114.772-55.64-222.125-150.484-286.275z" fill="#4285F4"/><path d="M340.175 973.596h263.146V762.963H340.175c-18.765 0-37.239-4.073-54.33-11.855L248.895 762.6 142.852 867.916l-9.237 36.948c59.423 44.949 132.01 69.096 206.56 68.732z" fill="#34A853"/><path d="M340.175 290.348C151.144 291.438-1.085 445.558.005 634.59.66 740.125 49.9 839.478 133.616 903.773l152.593-152.592c-66.187-29.893-95.643-107.863-65.75-174.05s107.862-95.642 174.049-65.75c29.165 13.165 52.512 36.585 65.75 65.75L612.849 424.54c-64.877-84.951-165.83-134.628-272.674-134.191z" fill="#FBBC05"/><path d="M1912.214 826.531a336.48 336.48 0 0 1-243.872-100.152c-66.404-62.405-103.498-149.829-102.334-240.963a325.571 325.571 0 0 1 102.334-240.962c64.005-65.823 152.084-102.698 243.872-101.971 87.425-1.164 171.722 32.802 233.908 94.261l-65.75 66.914c-45.022-43.567-105.535-67.423-168.158-66.55-65.677-.8-128.736 26.038-173.685 73.896-46.694 46.33-72.441 109.753-71.35 175.503-.582 65.023 25.165 127.5 71.35 173.322 95.134 94.843 248.527 96.661 345.916 4.073 29.02-31.712 46.767-72.15 50.622-114.918h-221.762v-94.552h313.768a305.925 305.925 0 0 1 3.71 57.677c3.927 80.66-25.311 159.43-80.952 218.052-61.895 64.368-148.301 99.425-237.617 96.37zm729.507-62.84c-87.497 83.86-225.544 83.86-313.04 0-42.404-41.094-65.533-98.044-63.933-157.03-1.6-58.986 21.602-115.935 63.932-157.03 87.57-83.641 225.47-83.641 313.04 0 42.331 41.095 65.533 98.044 63.933 157.03 1.527 59.059-21.82 116.009-64.296 157.03h.364zm-243.945-61.678c45.167 48.295 120.954 50.768 169.249 5.528 1.89-1.818 3.782-3.636 5.527-5.528a131.732 131.732 0 0 0 36.948-95.352c1.091-35.566-12.219-70.114-36.948-95.716-46.476-48.44-123.427-50.112-171.94-3.636a85.735 85.735 0 0 0-3.636 3.636c-24.729 25.602-38.039 60.15-36.948 95.716a131.644 131.644 0 0 0 37.312 95.352h.436zm725.07 61.678c-87.497 83.86-225.543 83.86-313.04 0-42.404-41.094-65.533-98.044-63.932-157.03-1.6-58.986 21.601-115.935 63.931-157.03 87.498-83.86 225.544-83.86 313.04 0 42.331 41.095 65.533 98.044 63.933 157.03 1.672 58.986-21.53 115.936-63.932 157.03zm-243.872-61.678c45.167 48.295 120.954 50.768 169.248 5.528 1.891-1.818 3.782-3.636 5.528-5.528a131.732 131.732 0 0 0 36.948-95.352c1.091-35.566-12.219-70.114-36.948-95.716-46.476-48.44-123.427-50.112-171.867-3.636a85.735 85.735 0 0 0-3.636 3.636c-24.73 25.602-38.04 60.15-36.948 95.716a131.644 131.644 0 0 0 37.311 95.352h.364zm560.185 321.842a193.806 193.806 0 0 1-123.063-39.203 226.816 226.816 0 0 1-71.714-90.916l84.224-35.13a141.507 141.507 0 0 0 41.748 55.059 105.297 105.297 0 0 0 69.096 23.274c32.148 1.964 63.568-10.182 86.115-33.238 22.256-26.839 33.239-61.314 30.693-96.08v-31.784h-3.345c-28.584 33.893-71.424 52.367-115.645 49.894-56.077.146-109.68-23.129-147.792-64.295-41.312-40.803-64.15-96.734-63.205-154.847-1.018-58.405 21.82-114.7 63.205-155.939 38.039-41.312 91.643-64.804 147.792-64.659 23.493-.073 46.767 5.164 68.005 15.128 18.401 8.001 34.766 20.002 48.076 35.13h3.346v-35.13h91.643v393.556c4.873 62.913-16.365 125.1-58.768 171.866a206.945 206.945 0 0 1-150.41 57.314zm6.692-283.802c31.93.727 62.55-12.874 83.496-36.949 22.766-26.11 34.84-59.931 33.603-94.624a139.554 139.554 0 0 0-33.603-96.444 107.3 107.3 0 0 0-83.496-36.948 114.324 114.324 0 0 0-86.48 36.948c-24.437 25.82-37.747 60.223-36.947 95.716-.728 35.203 12.51 69.242 36.948 94.625 22.038 24.366 53.53 38.112 86.479 37.676zm365.48-572.768V813.22h-96.443V167.285h96.443zm264.6 659.246c-58.403 1.528-114.771-21.383-155.574-63.204-41.385-41.458-64.005-98.116-62.477-156.666-2.182-58.695 19.565-115.79 60.222-158.193 38.403-40.439 92.08-62.84 147.793-61.75 25.383-.29 50.476 4.655 73.896 14.401a174.041 174.041 0 0 1 56.513 36.948 256.637 256.637 0 0 1 36.948 44.73c8.582 13.747 15.856 28.221 21.82 43.204l9.964 25.165-295.585 121.61c18.329 42.038 60.587 68.513 106.408 66.55 44.294.145 85.388-23.057 108.299-60.95l73.896 49.894a242.723 242.723 0 0 1-70.987 67.277c-33.166 20.947-71.86 31.712-111.135 30.984zM3952.506 599.97 4149.1 518.29c-6.037-14.4-16.874-26.256-30.694-33.602-15.419-8.728-32.875-13.165-50.621-12.946-30.039.8-58.623 13.382-79.424 35.13-25.238 24.147-38.403 58.258-35.857 93.097zm817.803 226.561c-168.157 2.91-306.785-131.063-309.694-299.22-.073-4.074-.073-8.22.072-12.293-3.927-168.157 129.246-307.585 297.33-311.513 4.073-.072 8.22-.072 12.292-.072 84.079-2.619 164.812 33.311 219.143 97.534l-53.24 51.713c-39.93-50.259-101.462-78.406-165.54-75.788-61.458-1.382-120.88 22.402-164.447 65.75-45.312 45.604-69.532 108.008-66.914 172.23-2.691 64.224 21.602 126.628 66.914 172.231 43.567 43.422 102.989 67.132 164.448 65.75 71.569.8 139.573-31.056 184.74-86.478l53.24 53.24c-27.856 33.311-62.84 59.931-102.334 77.969-42.621 19.783-89.097 29.675-136.01 28.947zm381.336-13.31h-76.514V216.38h76.514v596.842zM5276.6 453.996c83.424-82.842 218.124-82.842 301.548 0 39.567 41.821 60.878 97.68 59.132 155.21 1.746 57.532-19.565 113.39-59.132 155.212-83.424 82.842-218.124 82.842-301.548 0-39.567-41.821-60.877-97.68-59.132-155.211-1.745-57.531 19.493-113.39 59.132-155.211zm56.877 262.419c48.948 51.712 130.554 53.967 182.34 5.018 1.745-1.6 3.418-3.346 5.018-5.018 26.984-28.948 41.24-67.569 39.567-107.135a147.39 147.39 0 0 0-39.567-107.135c-48.949-51.713-130.554-53.968-182.34-5.019-1.746 1.6-3.418 3.346-5.018 5.019-26.984 28.947-41.24 67.568-39.567 107.135-1.527 39.493 12.874 77.969 39.93 106.77l-.363.365zm727.615 96.806h-73.896v-56.513h-2.182a142.506 142.506 0 0 1-53.968 50.986c-22.983 13.31-49.167 20.365-75.787 20.292a143.794 143.794 0 0 1-116.008-46.549c-28.002-35.42-42.04-79.86-39.567-124.881v-251.29h76.515v237.252c0 76.151 33.602 114.19 100.88 114.19a93.844 93.844 0 0 0 77.605-36.948c19.856-25.092 30.402-56.295 29.966-88.297V405.265h76.515v407.956zm259.8 13.31c-52.513.146-102.48-22.62-136.737-62.477a221.772 221.772 0 0 1-57.313-154.847 221.772 221.772 0 0 1 57.313-154.847 179.816 179.816 0 0 1 136.737-62.478c29.093-.436 57.822 6.4 83.497 19.93 22.62 11.345 41.748 28.583 55.422 49.894h3.346l-3.346-56.514V216.38h76.515v596.842h-73.897v-56.513h-3.345c-13.674 21.31-32.803 38.548-55.422 49.895-25.457 13.383-53.895 20.292-82.77 19.928zm12.583-69.823c34.984.51 68.514-14.037 92.006-39.93 25.966-29.602 39.276-68.223 36.948-107.571 2.328-39.276-10.982-77.97-36.948-107.571-46.403-51.059-125.39-54.768-176.449-8.292-2.909 2.618-5.673 5.455-8.291 8.292a147.935 147.935 0 0 0-36.948 107.135 147.935 147.935 0 0 0 36.948 107.134 121.724 121.724 0 0 0 92.734 40.803z" fill="#5F6368"/></svg>