<svg width="600" height="600" xmlns="http://www.w3.org/2000/svg"><defs><linearGradient x1="91.33%" y1="91.578%" x2="13.235%" y2="15.008%" id="a"><stop stop-color="#00FFF0" offset="0%"/><stop stop-color="#40F" offset="50.095%"/><stop stop-color="#05F" offset="100%"/></linearGradient></defs><path d="m309.09 586 .001-96.015 1.268-.01c88.952-1.429 163.347-62.145 184.621-143.973L309.09 346v-96h185.891l100.996-.002V250H600v46l-.003.577c.002.474.003.948.003 1.423 0 159.058-130.244 288-290.91 288Zm0-576c107.679 0 201.692 57.917 251.992 144l-125.652-.003c-33.443-29.221-77.144-47.202-125.071-47.971l-1.268-.011V10Zm-4.04 53.5c0 2.08-.675 4.005-1.821 5.57l-.023.029a9.733 9.733 0 0 1-8.221 3.972l-9.635 17.827c4.572 3.054 7.58 8.23 7.58 14.102 0 7.665-5.125 14.146-12.168 16.267-1.68.55-3.476.848-5.342.848a17.03 17.03 0 0 1-14.42-7.907l-25.772 12.753c.083.501.126 1.015.126 1.539a9.39 9.39 0 0 1-1.697 5.395 9.73 9.73 0 0 1-8.27 4.567 9.735 9.735 0 0 1-7.14-3.097l-28.625 14.167A16.803 16.803 0 0 1 190.91 156c0 8.148-5.79 14.957-13.52 16.615a17.254 17.254 0 0 1-3.977.462c-1.575 0-3.101-.212-4.55-.61L148.7 219.909c2.324 1.734 3.826 4.49 3.826 7.592 0 .065 0 .13-.002.195.002.062.002.126.002.19 0 5.31-4.35 9.615-9.715 9.615a9.886 9.886 0 0 1-1.538-.12l-18.589 43.735a16.992 16.992 0 0 1 6.328 6.377 16.792 16.792 0 0 1 2.302 8.508c0 5.607-2.742 10.58-6.971 13.677l17.022 38.669a9.696 9.696 0 0 1 2.575-.346c5.3 0 9.596 4.253 9.596 9.5 0 .648-.065 1.281-.19 1.893a9.616 9.616 0 0 1-4.305 6.386l20.964 47.624a17.4 17.4 0 0 1 3.733-.403c9.484 0 17.172 7.611 17.172 17 0 1.568-.214 3.086-.616 4.528l30.71 17.244a9.615 9.615 0 0 1 6.775-2.772c.33 0 .658.017.98.049 5.154.235 9.26 4.446 9.26 9.605 0 .86-.115 1.693-.329 2.486l25.42 14.274c.864-.897 1.827-1.7 2.87-2.392a17.218 17.218 0 0 1 9.779-3.022c9.483 0 17.171 7.611 17.171 17 0 6.867-4.112 12.783-10.032 15.466l7.604 24.457.254.004c5.237.145 9.438 4.393 9.438 9.611 0 5.31-4.35 9.616-9.715 9.616-.285 0-.568-.012-.847-.036l-6.637 21.46c5.868 2.704 9.935 8.593 9.935 15.422 0 9.389-7.688 17-17.171 17H275.42c-9.39 0-17.001-7.534-17.001-16.827 0-1.514.202-2.981.58-4.377l-43.352-17.223a9.734 9.734 0 0 1-7.746 3.812 9.732 9.732 0 0 1-8.188-4.438 9.39 9.39 0 0 1-1.688-6.376l-44.413-17.645a17.02 17.02 0 0 1-15.173 9.228c-5.245 0-9.935-2.35-13.054-6.045A16.835 16.835 0 0 1 121.212 529c0-4.196 1.536-8.037 4.081-11.002L96.629 485.53a9.757 9.757 0 0 1-4.337 1.008c-5.365 0-9.715-4.304-9.715-9.615a9.5 9.5 0 0 1 1.62-5.318c.02-.03.04-.061.058-.092L60.071 444.12a17.17 17.17 0 0 1-5.858 2.483 17.194 17.194 0 0 1-4.18.512c-9.39 0-17.002-7.533-17.002-16.827 0-4.234 1.58-8.103 4.188-11.06a17.216 17.216 0 0 1 6.391-4.802l-10.42-42.472c-3.481-.64-6.31-3.117-7.423-6.376-.333-.966-.514-2.001-.514-3.078 0-1.044.17-2.048.484-2.988a9.638 9.638 0 0 1 3.272-4.602L18.71 312.933c-.507.044-1.02.067-1.538.067C7.688 313 0 305.389 0 296v-.327c0-9.293 7.612-16.827 17.001-16.827.254 0 .506.006.757.017l10.648-42.156c-2.223-1.553-3.758-4.007-4.063-6.824a9.496 9.496 0 0 1-.1-1.383c0-4.921 3.78-8.969 8.622-9.452l9.827-38.905a17.199 17.199 0 0 1-1.66-.962c-4.805-2.972-8.001-8.255-8.001-14.277 0-8.397 6.214-15.358 14.34-16.622a17.498 17.498 0 0 1 3.134-.282c2.473 0 4.824.517 6.948 1.449l33.711-40.781a9.499 9.499 0 0 1-.815-3.86c0-4.094 2.585-7.59 6.227-8.977a9.74 9.74 0 0 1 5.747-.66l21.922-26.521a16.804 16.804 0 0 1-3.033-9.65c0-9.389 7.688-17 17.172-17a17.2 17.2 0 0 1 14.539 7.95l50.108-15.368V34.5c0-5.156 4.149-9.353 9.322-9.496l.273-.004h.132a9.733 9.733 0 0 1 7.993 4.148l37.685-11.557a16.938 16.938 0 0 1-.017-.764c0-9.293 7.611-16.827 17-16.827l.202.001.137-.001c9.374 0 16.994 7.437 17.168 16.677l.003.323c0 5.72-2.854 10.782-7.23 13.863l10.226 23c5.09.302 9.126 4.484 9.126 9.599ZM197.62 519.649l-42.166 7.49a17.02 17.02 0 0 1-.07 4.276l44.946 17.856a9.614 9.614 0 0 1 7.246-3.271 9.64 9.64 0 0 1 4.085.901c3.498 1.454 5.955 4.877 5.955 8.868 0 .123-.003.245-.007.367l43.856 17.423.212-.292c.242-.342.496-.675.762-.999l-39.086-42.918a17.218 17.218 0 0 1-9.212 2.65c-7.855 0-14.479-5.222-16.521-12.351Zm62.733-24.827-30.204 14.014a16.808 16.808 0 0 1 1.164 6.164c0 3.95-1.36 7.586-3.644 10.472l39.163 43.002a17.22 17.22 0 0 1 8.926-2.474c.54 0 1.076.025 1.605.073l6.859-22.178c-2.115-1.764-3.459-4.405-3.459-7.357 0-3.27 1.65-6.16 4.172-7.897l-7.68-24.705a17.57 17.57 0 0 1-1.497.064c-2.944 0-5.715-.733-8.136-2.025a16.984 16.984 0 0 1-7.27-7.153Zm-114.351-15.945a9.607 9.607 0 0 1-5.62 3.009v30.228a17.177 17.177 0 0 1 13.45 9.452l43.173-7.67a16.77 16.77 0 0 1 1.19-5.216Zm-56.982-72.77-23.555 15.542A16.791 16.791 0 0 1 67.677 430c0 3.798-1.258 7.305-3.384 10.135l24.382 27.617a9.649 9.649 0 0 1 3.75-.752c5.299 0 9.595 4.253 9.595 9.5 0 .18-.005.36-.015.54l.002-.117c0 1.664-.427 3.23-1.179 4.595l28.937 32.775a17.164 17.164 0 0 1 4.787-1.868v-31.448c-2.587-1.3-4.5-3.727-5.077-6.627a9.531 9.531 0 0 1 2.43-8.881l-24.673-54.266a17.321 17.321 0 0 1-5.212.797 17.205 17.205 0 0 1-13-5.893Zm98.778 33.654a17.18 17.18 0 0 1-4.002 4.019l25.55 54.892a17.341 17.341 0 0 1 4.795-.672c5.184 0 9.83 2.273 12.979 5.868l31.45-14.592a16.81 16.81 0 0 1-.151-2.257c0-2.418.515-4.718 1.443-6.796l-25.307-14.21a9.736 9.736 0 0 1-6.253 2.256 9.746 9.746 0 0 1-4.92-1.323c-3.089-1.578-5.2-4.768-5.2-8.446 0-.547.046-1.082.136-1.604Zm-24.003 4.405-17.983 21.168a9.536 9.536 0 0 1 2.704 8.318l52.738 30.113a17.21 17.21 0 0 1 2.85-2.56l-25.54-54.876c-1.624.51-3.355.786-5.152.786-3.569 0-6.881-1.088-9.617-2.949Zm-47.067-40.25a16.91 16.91 0 0 1-1.427 1.862 17.211 17.211 0 0 1-2.89 2.758l24.619 54.147a9.86 9.86 0 0 1 3.466-.058l19.119-22.503a16.635 16.635 0 0 1-3.204-9.834c0-2.26.45-4.416 1.267-6.386l-40.95-19.987Zm2.399-91.644c-1.364.41-2.8.655-4.284.714l-7.643 65.552c7.1 2.02 12.294 8.497 12.294 16.174 0 1.34-.158 2.646-.458 3.896l41.659 20.334a17.213 17.213 0 0 1 3.917-3.346l-21.263-48.298c-5.165-.224-9.282-4.439-9.282-9.606 0-2.376.87-4.55 2.313-6.228Zm-52.675 23.211c-.434.06-.878.092-1.328.094l-10.215 77.987c2.57.673 4.903 1.921 6.851 3.596l24.25-16.002A16.808 16.808 0 0 1 84.848 395c0-5.721 2.855-10.783 7.232-13.864l-25.628-45.653Zm-35.64-29.154a17.207 17.207 0 0 1-6.468 5.122l10.17 41.444a9.98 9.98 0 0 1 .46-.01c5.365 0 9.715 4.305 9.715 9.615 0 3.883-2.326 7.228-5.673 8.746l10.143 41.34 10.318-78.776c-2.482-1.742-4.102-4.608-4.102-7.848 0-1.08.18-2.118.512-3.087Zm69.242-.606-26.132 15.916c.404.898.671 1.87.776 2.89a9.556 9.556 0 0 1-2.977 8.46l25.622 45.65c.313-.088.63-.167.949-.237a17.177 17.177 0 0 1 3.112-.483l7.658-65.675a17.198 17.198 0 0 1-9.008-6.521Zm-3.073-9.088h-62.65a16.805 16.805 0 0 1-.802 4.554l25.616 16.902A9.616 9.616 0 0 1 65.152 316c1.752 0 3.395.465 4.81 1.278l27.606-16.814a16.827 16.827 0 0 1-.587-3.83Zm-22.118-60.803-45.168 48.536a16.95 16.95 0 0 1 3.851 6.497h64.22a16.856 16.856 0 0 1 2.073-4.277 17.003 17.003 0 0 1 6.074-5.638l-16.93-42.446c-1.324.324-2.709.496-4.135.496a17.211 17.211 0 0 1-9.985-3.168Zm34.063-96.255-42.454 19.156A16.806 16.806 0 0 1 67.677 165c0 9.389-7.688 17-17.172 17-.758 0-1.504-.049-2.236-.143l-9.694 38.38a9.62 9.62 0 0 1 2.423 1.937 9.53 9.53 0 0 1 2.72 6.672c0 5.31-4.35 9.616-9.716 9.616l-.032-.001-10.517 41.64c.546.22 1.077.47 1.593.745l45.715-49.123A16.805 16.805 0 0 1 67.677 222c0-5.168 2.329-9.797 6.005-12.915a17.031 17.031 0 0 1 11.324-4.277c.844 0 1.673.06 2.484.178l22.754-64.043a9.717 9.717 0 0 1-1.318-1.366Zm51.809 27.885L99.74 213.235a16.61 16.61 0 0 1 2.261 7.982c.012.26.018.52.018.783 0 5.921-3.058 11.136-7.696 14.18l17.102 42.881a17.297 17.297 0 0 1 5.783.057l18.841-44.328a9.54 9.54 0 0 1-2.955-6.905c0-2.051.649-3.952 1.754-5.513a9.614 9.614 0 0 1 8.337-4.369l20.408-48.014a17.04 17.04 0 0 1-2.86-2.527Zm-36.31-28.136a9.734 9.734 0 0 1-7.845 3.943c-.326 0-.649-.016-.967-.047l-22.587 63.572a17.045 17.045 0 0 1 2.976 2.007l61.638-46.257a16.63 16.63 0 0 1-1.229-6.294c0-1.688.251-3.317.718-4.854l-32.704-12.07Zm28.915-71.967A17.195 17.195 0 0 1 138.384 76a17.21 17.21 0 0 1-10.034-3.203l-20.84 25.21a9.416 9.416 0 0 1 2.591 6.493 9.418 9.418 0 0 1-2.663 6.568 9.734 9.734 0 0 1-7.374 3.355 9.745 9.745 0 0 1-4.994-1.366l-32.746 39.61c.376.354.736.724 1.08 1.11l43.474-19.615a9.672 9.672 0 0 1-.013-.508c0-4.212 2.736-7.791 6.545-9.092l.125-.045a9.67 9.67 0 0 1 3.132-.517c2.223 0 4.27.748 5.896 2.005l59.787-35.223a16.673 16.673 0 0 1-.68-4.724c0-1.815.29-3.562.827-5.2ZM214.7 92.871C212.035 98.837 206.004 103 198.99 103a17.27 17.27 0 0 1-6.606-1.304 17.032 17.032 0 0 1-7.45-5.722l-59.072 34.801c.067.223.127.45.178.68.167.706.255 1.442.255 2.199l-.004.204 33.42 12.333A17.203 17.203 0 0 1 173.737 139c5.066 0 9.62 2.172 12.762 5.626l29.261-14.482a9.605 9.605 0 0 1-.087-1.298c0-3.643 2.047-6.813 5.065-8.445a9.625 9.625 0 0 1 5.02-1.401 9.615 9.615 0 0 1 6.823 2.82l26.218-12.974a16.726 16.726 0 0 1-.318-5.006Zm30.537-28.892-30.36 15.562a16.803 16.803 0 0 1 1.236 7.731l43.854 10.99c.102-.22.209-.438.32-.652a17.108 17.108 0 0 1 4.623-5.79l-11.637-24.536a9.735 9.735 0 0 1-8.036-3.305Zm23.738-31.356-9.724 17.644a9.44 9.44 0 0 1 3.374 7.233c0 3.132-1.53 5.91-3.891 7.64l-.027.022L270 88.979c1.8-.634 3.737-.979 5.757-.979 1.471 0 2.9.183 4.263.528l9.416-17.426c-2.32-1.757-3.816-4.526-3.816-7.64 0-3.443 1.827-6.462 4.574-8.16L280.44 33.36c-1.489.417-3.06.64-4.683.64-2.41 0-4.702-.491-6.782-1.377Zm-9.277-9.38L222.472 34.66l-.003.23c-.146 5.184-4.438 9.342-9.71 9.342a9.733 9.733 0 0 1-7.989-4.141l-49.62 15.218c.265 1.188.406 2.424.406 3.692 0 .989-.086 1.958-.25 2.9l29.923 13.854a16.996 16.996 0 0 1 2.064-2.2A17.201 17.201 0 0 1 198.99 69c5.072 0 9.631 2.177 12.775 5.64l31.16-15.971a9.63 9.63 0 0 1-.05-.977c0-4.83 3.598-8.828 8.286-9.512l.26-.047a9.755 9.755 0 0 1 2.42-.1l10.236-18.571a17.145 17.145 0 0 1-2.404-2.734 16.681 16.681 0 0 1-1.974-3.484Z" fill="url(#a)" fill-rule="evenodd"/></svg>