<svg class="icon" viewBox="0 0 1024 1024" xmlns="http://www.w3.org/2000/svg" width="200" height="200"><path d="m403.687 669.564-90.216 26.017a156.733 156.733 0 1 1-24.157-80.038l96.046-27.69a156.817 156.817 0 0 1 114.728-143.358V307.824a156.733 156.733 0 1 1 83.591 0v136.67a156.44 156.44 0 0 1 63.007 34.524l63.466-38.243a156.733 156.733 0 1 1 42.13 72.202l-60.561 36.487a157.1 157.1 0 0 1 6.896 46.122 156.002 156.002 0 0 1-23.656 82.838l57.05 54.94a156.733 156.733 0 1 1-57.218 60.938l-61.439-59.182a156.064 156.064 0 0 1-71.47 17.199 156.712 156.712 0 0 1-138.218-82.755zm394.654-232.32.083.146a73.142 73.142 0 1 0-.083-.147zM541.884 668.727a73.142 73.142 0 1 0 0-146.285 73.142 73.142 0 0 0 0 146.285zm0-438.853a73.142 73.142 0 1 0 0-146.284 73.142 73.142 0 0 0 0 146.284zm219.948 585.66a73.142 73.142 0 1 0 103.444 103.443 73.142 73.142 0 0 0-103.444-103.444zm-534.46-135.21a73.142 73.142 0 1 0-141.31 37.826 73.142 73.142 0 0 0 141.31-37.825z" fill="currentColor"/></svg>