<svg class="icon" viewBox="0 0 1032 1024" xmlns="http://www.w3.org/2000/svg" width="201.563" height="200"><path d="M3.797 0H1021.94v1018.143H3.797z" fill="none"/><path d="m448.476 1016.176-13.15-498.466c-26.515-9.72 80.597-135.737 124.563-124.617 128.917-32.4 269.06-237.588 13.204-389.758-774.16 0-689.33 951.858-124.617 1012.84z" fill="#B3DDF2"/><path d="M446.021 1015.942c-230.673-53.028-456.425-375.8-180.296-665.505 63.422-55.902-63.263-220.942-167.04-129.919-275.725 381.327 86.909 796.458 347.336 795.424z" fill="#0055E9"/><path d="M408.827 536.275c0-2.651-6.363 4.576 0 0zm0 0v39.771c0 5.303-7.424 40.567-10.606 55.68l39.772 84.845s26.514 7.954 29.165 10.606 15.643 4.507 21.211 5.303l55.68 34.468 92.8-13.257 119.313-37.12 111.36-95.45 34.468-58.332 29.166-148.479-5.303-68.937v-60.982L864.87 173.03l-31.817-39.77-55.68-50.378-47.725-29.165-13.257-7.955-15.908-5.302-29.166-10.606-92.8-23.863C780.026 72.278 795.935 276.436 737.603 374.54S552.89 529.275 430.038 517.715l-21.211 18.56z" fill="#00BCFF"/><path d="M461.829 1016.208c180.296 47.698 575.192-124.426 570.054-493.164C1045.15 358.63 891.687 31.573 642.125 19.276c278.218 56.66 384.508 567.72 23.916 694.67-180.339 45.074-246.608-92.8-233.325-190.902-185.535 9.376-283.956 407.21 29.113 493.164z" fill="#0055DF"/></svg>