<svg xmlns="http://www.w3.org/2000/svg" viewBox="0 0 225 225" xml:space="preserve"><path fill="#4E77E1" d="M126 226H1V1h225v225H126m.452-30.047 10.425-2.417-5.857-22.095c-42.246 12.525-76.158-18.23-79.943-51.305C47.432 88.28 70.43 51.833 113.19 52.05c14.726.075 27.79 5.146 38.686 15.002 20.016 18.103 24.893 40.648 18.173 65.344l21.817 6.784c4.438-12.96 5.39-26.607 3.026-40.463-7.172-42.03-46.12-75.92-94.205-69.224-49.386 6.877-80.398 50.957-71.524 99.862 3.281 18.082 12.344 33.145 25.676 45.799 13.283 12.609 29.702 18.861 47.053 22.23 7.526 1.46 15.769-.772 24.56-1.432m.318-34.422 5.25 6.81c3.89-19.78 15.01-31.385 34.63-34.84-4.458-4.005-8.77-6.887-14.58-7.524-2.497-.274-5.333-1.786-7.102-3.617-7.648-7.916-16.385-14.192-26.725-17.836-6.414-2.26-13.198-3.47-20.523-5.33.567 16.482 6.321 29.355 16.394 40.033 5.676 6.016 11.356 11.524 11.369 20.481 0 .417.516.833 1.287 1.823m57.183 6.956c-.273-1.302-.51-2.613-.824-3.905-2.037-8.407-9.795-14.153-17.995-13.345-8.764.863-15.408 7.721-15.918 16.432-.481 8.227 5.51 15.523 13.924 17.622 7.06 1.762 14.092 3.76 20.941 6.2 3.941 1.404 7.494 3.896 10.299 5.402-3.32-8.86-6.83-18.221-10.427-28.406z"/><path fill="#FDFEFE" d="M126.014 196.005c-8.354.608-16.597 2.84-24.123 1.38-17.35-3.369-33.77-9.621-47.053-22.23-13.332-12.654-22.395-27.717-25.676-45.8-8.874-48.904 22.138-92.984 71.524-99.86 48.084-6.697 87.033 27.192 94.205 69.223 2.364 13.856 1.412 27.502-3.026 40.463l-21.817-6.784c6.72-24.696 1.843-47.24-18.173-65.344-10.897-9.856-23.96-14.927-38.686-15.002-42.759-.218-65.757 36.23-62.112 68.085 3.785 33.075 37.697 63.83 79.943 51.305l5.857 22.095c-3.105.72-6.765 1.569-10.863 2.47z"/><path fill="#FCFDFE" d="M126.521 161.244c-.523-.703-1.039-1.12-1.04-1.536-.012-8.957-5.692-14.465-11.368-20.481-10.073-10.678-15.827-23.55-16.394-40.033 7.325 1.86 14.11 3.07 20.523 5.33 10.34 3.644 19.077 9.92 26.725 17.836 1.77 1.83 4.605 3.343 7.102 3.617 5.81.637 10.122 3.52 14.58 7.525-19.62 3.454-30.74 15.06-34.63 34.84a1207.006 1207.006 0 0 0-5.498-7.098m-7.943-29.097c4.14 1.682 8.136.69 9.9-3.018 1.279-2.686 1.212-6.76.162-9.637-1.725-4.729-6.754-3.4-10.144-2.773-2.027.376-4.232 3.647-5.007 6.052-1.259 3.905.954 6.99 5.089 9.376z"/><path fill="#F8B031" d="M183.997 168.899c3.553 9.773 7.061 19.134 10.382 27.994-2.805-1.506-6.358-3.998-10.299-5.402-6.849-2.44-13.88-4.438-20.94-6.2-8.415-2.099-14.406-9.395-13.925-17.622.51-8.71 7.154-15.57 15.918-16.432 8.2-.808 15.958 4.938 17.995 13.345.314 1.292.551 2.603.869 4.317z"/><path fill="#5079E1" d="M118.222 132.005c-3.779-2.244-5.992-5.33-4.733-9.234.775-2.405 2.98-5.676 5.007-6.052 3.39-.627 8.42-1.956 10.144 2.773 1.05 2.878 1.117 6.95-.161 9.637-1.765 3.707-5.762 4.7-10.257 2.876z"/></svg>