<svg width="58" height="24" fill="none" xmlns="http://www.w3.org/2000/svg"><g clip-path="url(#a)"><path d="M4.471 23.952a3.672 3.672 0 1 0 0-7.344 3.672 3.672 0 0 0 0 7.344Z" fill="#EB6161"/><path fill-rule="evenodd" clip-rule="evenodd" d="M16.039 8.712a.86.86 0 0 1 .864.864l-.048 7.032c0 4.008-3.216 7.272-7.224 7.344h-.12v-7.32h.024L9.559 9.6a.86.86 0 0 1 .864-.864h5.616v-.024Zm11.28 0a.86.86 0 0 1 .864.864v9.84a.86.86 0 0 1-.864.864h-5.616a.86.86 0 0 1-.864-.864v-9.84a.86.86 0 0 1 .864-.864h5.616Zm8.832-.024h.12c3.6.048 6.528 2.952 6.624 6.552v4.152a.86.86 0 0 1-.864.864h-9.072a.86.86 0 0 1-.864-.864v-9.84a.86.86 0 0 1 .864-.864h3.192ZM51.007 20.16c-3.024-.192-5.448-2.712-5.448-5.784a5.787 5.787 0 0 1 5.784-5.784c3.072 0 5.592 2.4 5.784 5.448v5.256a.86.86 0 0 1-.864.864h-5.256Z" fill="#009191"/><path d="M24.499 7.344a3.672 3.672 0 1 0 0-7.344 3.672 3.672 0 0 0 0 7.344Z" fill="#FBCB67"/></g><defs><clipPath id="a"><path fill="#fff" transform="translate(.8)" d="M0 0h56.4v24H0z"/></clipPath></defs></svg>