<svg class="icon" viewBox="0 0 1024 1024" xmlns="http://www.w3.org/2000/svg" width="200" height="200"><path d="M420 632V495.3c74.444-50.01 120-134.034 120-223.3C540 123.114 418.886 0 270 0S0 123.114 0 272c0 89.268 45.556 173.292 120 223.3V872a29.972 29.972 0 0 0 8.79 21.21l120 122A29.904 29.904 0 0 0 270 1024a29.9 29.9 0 0 0 21.21-8.79l120-122c11.718-11.718 11.718-30.704 0-42.422L372.422 812l38.79-38.79c11.718-11.718 11.718-30.704 0-42.422L372.422 692l38.79-38.79A29.98 29.98 0 0 0 420 632zM270 302c-49.628 0-90-40.372-90-90s40.372-90 90-90 90 40.372 90 90-40.372 90-90 90z" fill="#0f0e0f"/><path d="M934 362c-39.06 0-72.048 25.156-84.474 60H754a30.012 30.012 0 0 0-26.836 16.582L675.456 542H510c-16.582 0-30 13.418-30 30s13.418 30 30 30h184a30.012 30.012 0 0 0 26.836-16.582L772.544 482h76.982c12.426 34.844 45.414 60 84.474 60 49.628 0 90-40.372 90-90s-40.372-90-90-90zm0 240c-39.06 0-72.048 25.156-84.474 60H510c-16.582 0-30 13.418-30 30s13.418 30 30 30h339.526c12.426 34.844 45.414 60 84.474 60 49.628 0 90-40.372 90-90s-40.372-90-90-90zm0 240c-39.06 0-72.048 25.156-84.474 60h-76.982l-51.708-103.418A30.012 30.012 0 0 0 694 782H510c-16.582 0-30 13.418-30 30s13.418 30 30 30h165.456l51.708 103.418C732.262 955.584 742.632 964 754 964h95.526c12.426 34.844 45.414 60 84.474 60 49.628 0 90-42.372 90-92s-40.372-90-90-90zm0-720c-39.06 0-72.048 25.156-84.474 60H754a30.005 30.005 0 0 0-24.96 13.36L617.946 362H570c-16.582 0-30 13.418-30 30s13.418 30 30 30h64c10.02 0 19.394-5.01 24.96-13.36L770.054 242h79.472c12.426 34.844 45.414 60 84.474 60 49.628 0 90-40.372 90-90s-40.372-90-90-90z" fill="#0f0e0f"/></svg>