<svg width="512" height="512" fill="none" xmlns="http://www.w3.org/2000/svg"><path d="M457 357.752c-22.553 30.511-57.091 50.868-96.062 53.839-1.214.085-2.427.17-3.658.238-45.696 2.275-80.215-18.573-103.105-37.929-40.505-21.444-72.196-26.844-90.738-31.513-13.485-3.396-25.284-10.187-30.341-13.583-4.483-2.666-13.501-8.846-20.227-20.374-7.534-12.921-7.973-25.264-7.855-30.51a212.593 212.593 0 0 1 14.935-1.478c4.854-.305 9.557-.424 14.833-.441 40.926-.051 72.666 1.952 95.759 12.207a136.657 136.657 0 0 1 34.386 21.886c13.265 11.579 40.386 29.882 73.812 23.634a96.023 96.023 0 0 0 12.254-3.141c12.035-1.732 32.616-3.124 56.855 3.311 23.008 6.112 39.561 16.673 49.152 23.854ZM454 147.632c-10.168-13.173-22.526-25.626-37.122-34.124-15.554-9.05-35.402-16.843-59.407-18.955-58.65-5.162-98.749 27.369-106.055 33.52-9.09 8.531-45.452 38.716-89.22 55.476-7.626 2.715-22.305 9.134-35.352 23.464A86.566 86.566 0 0 0 109 237.147a202.742 202.742 0 0 0 16.161 1.559c42.438 2.363 78.901 2.598 102.755-9.084 15.757-7.71 29.577-18.687 41.496-31.542 21.48-23.18 52.808-33.52 81.325-26.431 13.097 1.827 35.907 3.218 62.286-4.86 18.215-5.581 31.786-12.604 40.977-19.157ZM56 157.414c-16.27-8.363-28.971-18.01-37.634-25.561C13.524 127.629 6 131.092 6 137.546v52.761a7.552 7.552 0 0 0 2.815 5.896L30.43 217a121.735 121.735 0 0 1 9.082-32.302A120.99 120.99 0 0 1 56 157.414ZM404 275.157a83.73 83.73 0 0 0 4.049-23.761c.169-6.436-.576-8.841-1.694-15.073 11.502-1.931 25.867-5.081 38.962-8.468 13.84-3.573 24.072-7.723 35.574-11.855 1.677 8.045 3.439 11.957 4.048 17.918.576 5.623.932 11.449 1.034 17.478A204.834 204.834 0 0 1 480.467 302a286.848 286.848 0 0 0-38.538-16.563A287.073 287.073 0 0 0 404 275.157ZM17.863 386.557C12.903 390.158 6 386.608 6 380.438v-64.8c0-1.961.754-3.821 2.061-5.207.653-.693 1.257-1.082 1.525-1.234L31 300a166.105 166.105 0 0 0 8.512 30.058A164.378 164.378 0 0 0 56 361.807c-12.718 8.25-25.436 16.5-38.137 24.75Z" fill="#0A60B5" stroke="#000" stroke-width="8" stroke-miterlimit="10"/><path fill-rule="evenodd" clip-rule="evenodd" d="M155.765 103.453c42.829-2.125 74.857 15.814 91.365 27.804-12.497 11.038-46.313 37.675-86.312 53.059a87.574 87.574 0 0 0-10.356 4.477c-28.942 14.255-46.152 42.664-46.92 73.015a95.539 95.539 0 0 0 .807 15.199l-.218.029c-.118 5.205.32 17.452 7.85 30.272 6.722 11.439 15.735 17.571 20.216 20.216 2.223 1.482 5.752 3.617 10.154 5.83 5.172 2.755 10.906 5.066 17.231 6.853.969.281 1.949.546 2.938.794 2.301.575 4.81 1.17 7.516 1.813 19.084 4.529 47.999 11.392 83.453 30.026a189.921 189.921 0 0 0 11.578 8.996 161.68 161.68 0 0 0-3.171 2.915c-7.311 6.183-47.439 38.881-106.131 33.693-24.023-2.123-43.901-9.956-59.45-19.053-26.196-15.314-45.99-39.538-56.789-67.891-6.957-18.278-13.022-41.913-13.46-69.726-.387-23.753 3.42-44.676 8.609-62.028 15.886-53.015 62.213-91.896 117.435-96.057 1.212-.084 2.425-.169 3.655-.236Zm299.977 252.671c-9.613-7.123-26.107-17.521-48.952-23.547-24.225-6.384-44.794-5.003-56.822-3.285a96.404 96.404 0 0 1-12.248 3.117c-33.406 6.199-60.511-11.961-73.769-23.45a137.027 137.027 0 0 0-7.965-6.381c8.922-7.842 18.733-14.609 29.428-19.864 23.871-11.725 60.36-11.489 102.829-9.131 58.524 3.268 98.955 31.149 115.093 43.952a7.48 7.48 0 0 1 2.83 5.879v52.611c0 6.452-7.564 9.905-12.432 5.677-8.723-7.552-21.551-17.213-37.992-25.578Zm-187.63-157.203a162.454 162.454 0 0 1-12.104 11.839 136.76 136.76 0 0 0 26.424 15.35c23.079 10.175 54.801 12.163 95.703 12.113 59.99-.084 104.16-22.675 124.426-34.973a7.503 7.503 0 0 0 3.605-6.418V132.26c0-6.149-6.94-9.686-11.927-6.098a225.602 225.602 0 0 1-51.995 27.869 142.254 142.254 0 0 1-30.417 13.438c-26.398 8.12-49.225 6.722-62.331 4.886-28.537-7.126-59.888 3.268-81.384 26.566Z" fill="#E11312"/><path d="m247.13 131.257 2.649 2.998 3.739-3.303-4.037-2.932-2.351 3.237Zm-91.365-27.804-.198-3.995h-.01l-.011.001.219 3.994Zm5.053 80.863 1.347 3.766.045-.016.044-.017-1.436-3.733Zm-10.356 4.477 1.768 3.588.026-.013.025-.013-1.819-3.562Zm-46.92 73.015-3.999-.102 3.999.102Zm.807 15.199.524 3.965 3.977-.525-.537-3.976-3.964.536Zm-.218.029-.528-3.965-3.394.451-.077 3.423 3.999.091Zm7.85 30.272-3.449 2.026v.001l3.449-2.027Zm20.216 20.216 2.218-3.329-.091-.06-.094-.056-2.033 3.445Zm10.154 5.83 1.881-3.53-.042-.023-.042-.021-1.797 3.574Zm17.231 6.853 1.114-3.842-.013-.004-.013-.003-1.088 3.849Zm2.938.794.97-3.881-.97 3.881Zm7.516 1.813.924-3.892-.924 3.892Zm83.453 30.026 2.572-3.064-.33-.276-.381-.201-1.861 3.541Zm11.578 8.996 2.667 2.981 3.719-3.328-4.058-2.905-2.328 3.252Zm-3.171 2.915 2.583 3.055.084-.071.08-.076-2.747-2.908Zm-106.131 33.693.352-3.985-.352 3.985Zm-59.45-19.053 2.02-3.453-.001-.001-2.02 3.454ZM39.526 331.5l-3.738 1.423v.001l3.738-1.424Zm-13.46-69.726 4-.063v-.002l-4 .065Zm8.609-62.028-3.832-1.148v.002l3.832 1.146Zm117.435-96.057-.278-3.99h-.011l-.012.001.301 3.989Zm254.68 228.888 1.02-3.867h-.001l-1.019 3.867Zm48.952 23.547-2.381 3.214.269.199.298.152 1.814-3.565Zm-105.774-26.832-.566-3.959-.344.049-.331.108 1.241 3.802Zm-12.248 3.117.73 3.933.004-.001-.734-3.932Zm-73.769-23.45 2.619-3.023-.003-.003-2.616 3.026Zm-7.965-6.381-2.641-3.004-3.718 3.268 3.976 2.949 2.383-3.213Zm29.428-19.864-1.764-3.591-.001.001 1.765 3.59Zm102.829-9.131.223-3.994h-.001l-.222 3.994Zm115.093 43.952 2.488-3.132-.002-.002-2.486 3.134Zm-9.602 64.167 2.623-3.02-.005-.004-2.618 3.024ZM256.008 210.76l-2.641-3.005-3.718 3.268 3.976 2.949 2.383-3.212Zm12.104-11.839 2.939 2.713h.001l-2.94-2.713Zm14.32 27.189 1.613-3.66-.002-.001-1.611 3.661Zm95.703 12.113.005 4h.001l-.006-4Zm124.426-34.973 2.075 3.42.006-.004-2.081-3.416Zm-8.322-77.088-2.336-3.247 2.336 3.247Zm-51.995 27.869-1.41-3.743-.323.122-.298.175 2.031 3.446Zm-30.417 13.438 1.176 3.824.001-.001-1.177-3.823Zm-62.331 4.886-.969 3.881.205.051.209.029.555-3.961ZM249.481 128.02c-16.918-12.287-49.837-30.749-93.914-28.562l.396 7.99c41.582-2.063 72.718 15.353 88.817 27.045l4.701-6.473Zm-87.227 60.029c40.624-15.625 74.853-42.602 87.525-53.794l-5.297-5.996c-12.322 10.884-45.727 37.18-85.099 52.323l2.871 7.467Zm-9.973 4.306a83.87 83.87 0 0 1 9.884-4.273l-2.693-7.533a91.668 91.668 0 0 0-10.828 4.681l3.637 7.125Zm-44.74 69.554c.731-28.897 17.111-55.944 44.689-69.528l-3.535-7.177c-30.307 14.928-48.347 44.699-49.152 76.502l7.998.203Zm.772 14.562a91.542 91.542 0 0 1-.772-14.562l-7.998-.203a99.57 99.57 0 0 0 .842 15.836l7.928-1.071Zm-3.654 4.53.214-.029-1.048-7.931-.222.03 1.056 7.93Zm10.771 24.281c-6.999-11.916-7.41-23.314-7.3-28.156l-7.998-.181c-.126 5.569.339 18.666 8.4 32.389l6.898-4.052Zm18.8 18.797c-4.172-2.463-12.555-8.169-18.8-18.797l-6.898 4.053c7.198 12.248 16.841 18.806 21.631 21.633l4.067-6.889Zm9.918 5.701c-4.256-2.139-7.643-4.192-9.733-5.585l-4.437 6.657c2.358 1.572 6.027 3.789 10.577 6.076l3.593-7.148Zm16.522 6.578c-6.065-1.714-11.532-3.921-16.438-6.534l-3.762 7.06c5.437 2.897 11.439 5.311 18.024 7.172l2.176-7.698Zm2.82.762a77.5 77.5 0 0 1-2.794-.755l-2.228 7.684c1.014.294 2.042.572 3.082.832l1.94-7.761Zm7.47 1.802a681.385 681.385 0 0 1-7.47-1.802l-1.94 7.761a658.1 658.1 0 0 0 7.562 1.824l1.848-7.783Zm84.39 30.377c-35.914-18.876-65.232-25.83-84.39-30.377l-1.848 7.783c19.009 4.512 47.523 11.284 82.516 29.676l3.722-7.082Zm12.045 9.285a186.252 186.252 0 0 1-11.334-8.808l-5.143 6.128a194.555 194.555 0 0 0 11.82 9.185l4.657-6.505Zm-2.752 9.075c.834-.788 1.866-1.746 3.091-2.842l-5.335-5.962a168.66 168.66 0 0 0-3.249 2.988l5.493 5.816Zm-109.23 34.769c60.342 5.335 101.54-28.258 109.066-34.622l-5.166-6.109c-7.096 6.001-46.153 37.805-103.196 32.762l-.704 7.969Zm-61.118-19.585c15.97 9.344 36.413 17.402 61.118 19.585l.704-7.969c-23.34-2.062-42.655-9.671-57.782-18.521l-4.04 6.905Zm-58.507-69.919c11.105 29.155 31.48 54.12 58.508 69.92l4.037-6.907c-25.363-14.826-44.576-38.311-55.069-65.86l-7.476 2.847Zm-13.721-71.087c.446 28.363 6.631 52.46 13.72 71.086l7.478-2.846c-6.826-17.93-12.77-41.103-13.2-68.366l-7.998.126Zm8.775-63.237c-5.287 17.683-9.17 39.017-8.775 63.239l7.999-.13c-.38-23.284 3.351-43.797 8.44-60.817l-7.664-2.292ZM151.81 99.7c-56.949 4.291-104.627 44.37-120.966 98.898l7.663 2.296c15.433-51.502 60.41-89.185 113.904-93.216l-.601-7.978Zm3.737-.24c-1.263.068-2.505.155-3.714.239l.555 7.98c1.217-.084 2.401-.166 3.597-.232l-.438-7.988ZM405.77 336.444c22.206 5.857 38.241 15.965 47.591 22.893l4.763-6.428c-9.877-7.318-26.829-18.006-50.314-24.2l-2.04 7.735Zm-55.237-3.193c11.693-1.67 31.69-3.013 55.238 3.193l2.038-7.735c-24.902-6.564-46.044-5.144-58.407-3.377l1.131 7.919Zm-12.079 3.089a100.355 100.355 0 0 0 12.754-3.246l-2.481-7.605a92.59 92.59 0 0 1-11.74 2.987l1.467 7.864Zm-77.123-24.359c13.543 11.735 41.881 30.899 77.119 24.36l-1.459-7.866c-31.574 5.86-57.447-11.297-70.421-22.54l-5.239 6.046Zm-7.728-6.191a132.135 132.135 0 0 1 7.732 6.194l5.232-6.052a141.166 141.166 0 0 0-8.198-6.568l-4.766 6.426Zm30.046-26.667c-11.045 5.428-21.147 12.402-30.304 20.45l5.282 6.009c8.688-7.636 18.208-14.196 28.551-19.279l-3.529-7.18Zm104.816-9.535c-21.258-1.18-41.198-1.842-58.866-.714-17.636 1.126-33.33 4.05-45.949 10.248l3.527 7.181c11.252-5.527 25.738-8.347 42.932-9.445 17.162-1.096 36.7-.46 57.912.718l.444-7.988Zm117.357 44.812c-16.448-13.049-57.662-41.478-117.356-44.812l-.446 7.988c57.353 3.203 97.001 30.534 112.83 43.091l4.972-6.267Zm4.344 9.013a11.48 11.48 0 0 0-4.342-9.011l-4.976 6.264a3.479 3.479 0 0 1 1.318 2.747h8Zm0 52.611v-52.611h-8v52.611h8Zm-19.055 8.697c7.463 6.482 19.055 1.178 19.055-8.697h-8c0 3.029-3.535 4.632-5.809 2.657l-5.246 6.04Zm-37.183-25.033c16.088 8.186 28.649 17.644 37.188 25.037l5.236-6.048c-8.907-7.712-22.003-17.574-38.796-26.119l-3.628 7.13ZM258.649 213.764a166.206 166.206 0 0 0 12.402-12.13l-5.878-5.426a158.298 158.298 0 0 1-11.806 11.547l5.282 6.009Zm25.394 8.685a132.716 132.716 0 0 1-25.652-14.902l-4.766 6.425a140.731 140.731 0 0 0 27.196 15.8l3.222-7.323Zm94.087 11.774c-40.993.05-71.887-1.986-94.085-11.773l-3.227 7.32c23.961 10.564 56.51 12.503 97.322 12.453l-.01-8Zm122.356-34.393c-19.931 12.095-63.374 34.31-122.356 34.393l.011 8c60.996-.086 105.895-23.052 126.495-35.553l-4.15-6.84Zm1.68-2.998a3.504 3.504 0 0 1-1.685 3.002l4.161 6.832a11.504 11.504 0 0 0 5.524-9.834h-8Zm0-64.572v64.572h8V132.26h-8Zm-5.59-2.851c2.353-1.694 5.59-.022 5.59 2.851h8c0-9.424-10.643-14.828-18.263-9.345l4.673 6.494Zm-52.921 28.365a229.598 229.598 0 0 0 52.921-28.366l-4.673-6.493a221.63 221.63 0 0 1-51.069 27.373l2.821 7.486Zm-30.651 13.518a146.336 146.336 0 0 0 31.272-13.815l-4.063-6.892a138.312 138.312 0 0 1-29.562 13.061l2.353 7.646Zm-64.063 5.024c13.459 1.886 36.92 3.325 64.062-5.023l-2.352-7.647c-25.654 7.891-47.846 6.534-60.6 4.747l-1.11 7.923Zm-77.889 25.318c20.617-22.347 50.511-32.131 77.475-25.398l1.938-7.762c-30.111-7.519-62.919 3.485-85.293 27.735l5.88 5.425Z" fill="#000"/></svg>