<svg xmlns="http://www.w3.org/2000/svg" viewBox="0 0 85 85" style="enable-background:new 0 0 85 85" xml:space="preserve"><path d="M75.9 48.1V36.9c0-2 0-3.1-.1-3.9 0-.4-.1-.6-.1-.7-.1-.3-.2-.5-.4-.7-.1 0-.2-.2-.6-.4-.7-.5-1.6-1-3.3-2l-9.7-5.6c-1.7-1-2.7-1.5-3.4-1.9l-.6-.3c-.3-.1-.6-.1-.9 0-.1 0-.3.1-.6.3-.7.4-1.7.9-3.4 1.9l-9.7 5.6c-1.7 1-2.7 1.5-3.3 2-.3.2-.5.4-.6.4-.2.2-.3.5-.4.7 0 .1 0 .3-.1.7 0 .8-.1 1.9-.1 3.9v11.2c0 2 0 3.1.1 3.9 0 .4.1.6.1.7.1.3.2.5.4.7.1 0 .2.2.6.4.7.5 1.6 1 3.3 2l9.7 5.6c1.7 1 2.7 1.5 3.4 1.9l.6.3c.3.1.6.1.9 0 .1 0 .3-.1.6-.3.7-.4 1.7-.9 3.4-1.9l9.7-5.6c1.7-1 2.7-1.5 3.3-2 .3-.2.5-.4.6-.4.2-.2.3-.5.4-.7 0-.1 0-.3.1-.7.1-.8.1-1.9.1-3.9zm-.2 4.6zm-.4.7zM57.7 63.7zm-.8 0zM39.3 53.4zm-.4-.7zm0-20.4zm.4-.7zm17.6-10.2zm.8 0zm17.6 10.2zm.4.7zm6.2-6.7c-1.2-1.3-2.8-2.3-6-4.1l-9.7-5.6C63 14 61.3 13 59.6 12.7c-1.5-.3-3.1-.3-4.6 0-1.7.4-3.3 1.3-6.6 3.2l-9.7 5.6c-3.2 1.9-4.9 2.8-6 4.1-1 1.2-1.8 2.5-2.3 4-.5 1.7-.5 3.6-.5 7.3v11.2c0 3.8 0 5.6.5 7.3.5 1.5 1.3 2.9 2.3 4 1.2 1.3 2.8 2.3 6 4.1l9.7 5.6c3.2 1.9 4.9 2.8 6.6 3.2 1.5.3 3.1.3 4.6 0 1.7-.4 3.3-1.3 6.6-3.2l9.7-5.6c3.2-1.9 4.9-2.8 6-4.1 1-1.2 1.8-2.5 2.3-4 .5-1.7.5-3.6.5-7.3V36.9c0-3.8 0-5.6-.5-7.3-.5-1.5-1.3-2.9-2.3-4z" style="fill-rule:evenodd;clip-rule:evenodd;fill:#2d9cdb"/><path d="M46.3 48.1V36.9c0-2 0-3.1-.1-3.9 0-.4-.1-.6-.1-.7-.1-.3-.2-.5-.4-.7-.1 0-.2-.2-.6-.4-.7-.5-1.6-1-3.3-2l-9.7-5.6c-1.7-1-2.7-1.5-3.4-1.9l-.6-.3c-.3-.1-.6-.1-.9 0-.1 0-.3.1-.6.3-.7.4-1.7.9-3.4 1.9l-9.7 5.6c-1.7 1-2.7 1.5-3.3 2-.3.2-.5.4-.6.4-.2.2-.3.5-.4.7 0 .1 0 .3-.1.7 0 .8-.1 1.9-.1 3.9v11.2c0 2 0 3.1.1 3.9 0 .4.1.6.1.7.1.3.2.5.4.7.1 0 .2.2.6.4.7.5 1.6 1 3.3 2l9.7 5.6c1.7 1 2.7 1.5 3.4 1.9l.6.3c.3.1.6.1.9 0 .1 0 .3-.1.6-.3.7-.4 1.7-.9 3.4-1.9l9.7-5.6c1.7-1 2.7-1.5 3.3-2 .3-.2.5-.4.6-.4.2-.2.3-.5.4-.7 0-.1 0-.3.1-.7.1-.8.1-1.9.1-3.9zm6-22.5c-1.2-1.3-2.8-2.3-6-4.1l-9.7-5.6C33.4 14 31.8 13 30 12.7c-1.5-.3-3.1-.3-4.6 0-1.7.4-3.3 1.3-6.6 3.2l-9.7 5.6c-3.2 1.9-4.9 2.8-6 4.1-1 1.2-1.8 2.5-2.3 4-.5 1.7-.5 3.6-.5 7.3v11.2c0 3.8 0 5.6.5 7.3.5 1.5 1.3 2.9 2.3 4 1.2 1.3 2.8 2.3 6 4.1l9.7 5.6c3.2 1.9 4.9 2.8 6.6 3.2 1.5.3 3.1.3 4.6 0 1.7-.4 3.3-1.3 6.6-3.2l9.7-5.6c3.2-1.9 4.9-2.8 6-4.1 1-1.2 1.8-2.5 2.3-4 .5-1.7.5-3.6.5-7.3V36.9c0-3.8 0-5.6-.5-7.3-.4-1.5-1.2-2.9-2.3-4z" style="fill-rule:evenodd;clip-rule:evenodd;fill:#2f80ed"/><path d="M42.5 55.5c.2.1.4.3.7.4l8 4.6c-1.1.9-2.6 1.7-4.9 3.1l-3.8 2.2-3.8-2.2c-2.3-1.4-3.8-2.2-4.9-3.1l8-4.6c.3-.2.5-.3.7-.4z" style="fill:#2f80ed"/><path d="M51.2 24.5c-1.1-.9-2.6-1.7-4.9-3.1l-3.8-2.2-3.8 2.2c-2.3 1.4-3.8 2.2-4.9 3.1l8 4.6c.2.1.5.3.7.4.2-.1.4-.3.7-.4l8-4.6z" style="fill:#2d9cdb"/></svg>