<svg width="1500" height="500" xmlns="http://www.w3.org/2000/svg" xmlns:xlink="http://www.w3.org/1999/xlink"><defs><linearGradient x1="-19.695%" y1="78.758%" x2="78.651%" y2="-14.527%" id="c"><stop stop-color="#43CDE9" offset="0%"/><stop stop-color="#4E40EC" offset="100%"/></linearGradient><linearGradient x1="-19.876%" y1="78.758%" x2="78.726%" y2="-14.527%" id="d"><stop stop-color="#43CDE9" offset="0%"/><stop stop-color="#4E40EC" offset="100%"/></linearGradient><linearGradient x1="-20.307%" y1="78.758%" x2="78.903%" y2="-14.527%" id="e"><stop stop-color="#43CDE9" offset="0%"/><stop stop-color="#4E40EC" offset="100%"/></linearGradient><path id="a" d="M0 0h480.282v480H0z"/></defs><g fill="none" fill-rule="evenodd"><path fill="none" d="M0 0h1500v500H0z"/><g transform="translate(22 10)"><mask id="b" fill="#fff"><use xlink:href="#a"/></mask><use fill-opacity="0" fill="#D8D8D8" xlink:href="#a"/><path d="M91.674 285.525c8.512 8.7 8.511 22.805 0 31.504l-.436.446a21.462 21.462 0 0 1-30.823 0c-8.511-8.7-8.511-22.805 0-31.505l.436-.445a21.463 21.463 0 0 1 30.823 0Z" fill="#53F3FD" mask="url(#b)"/><path d="M195.696 291.612c8.586 8.795 8.56 23.028-.057 31.79l-61.01 62.043a21.713 21.713 0 0 1-31.149-.057c-8.586-8.795-8.56-23.028.056-31.79l61.011-62.043a21.713 21.713 0 0 1 31.149.057Z" fill="#43CDE9" mask="url(#b)"/><path d="M278.835 398.042c6.695-10.36 20.264-13.16 30.308-6.253l1.311.902c10.043 6.907 12.757 20.905 6.062 31.267-6.696 10.36-20.266 13.16-30.308 6.253l-1.312-.902c-10.043-6.907-12.757-20.905-6.061-31.267Z" fill="#53F3FD" mask="url(#b)"/><path d="M423.799 283.537c8.605 8.718 8.605 22.851 0 31.568l-29.97 30.357a21.838 21.838 0 0 1-31.165 0c-8.606-8.717-8.606-22.85 0-31.567l29.97-30.358a21.84 21.84 0 0 1 31.165 0Z" fill="#43CDE9" mask="url(#b)"/><path d="M423.808 170.562c8.593 8.751 8.593 22.938 0 31.688L202.661 427.437a21.725 21.725 0 0 1-31.119 0c-8.593-8.75-8.593-22.937 0-31.688L392.69 170.562a21.727 21.727 0 0 1 31.12 0Z" fill="url(#c)" mask="url(#b)"/><path d="M382.787 101.55c8.59 8.735 8.59 22.895 0 31.63L255.67 262.45a21.733 21.733 0 0 1-31.101 0c-8.589-8.735-8.589-22.895 0-31.63l127.115-129.27a21.734 21.734 0 0 1 31.102 0Z" fill="url(#d)" mask="url(#b)"/><path d="M315.715 58.536c8.624 8.723 8.634 22.875.021 31.61L151.754 256.442a21.873 21.873 0 0 1-31.212.022c-8.625-8.724-8.634-22.875-.021-31.61L284.502 58.557a21.875 21.875 0 0 1 31.213-.02Z" fill="url(#e)" mask="url(#b)"/><path d="M152.674 111.602c8.58 8.782 8.556 22.996-.054 31.748l-64.045 65.102a21.704 21.704 0 0 1-31.126-.055c-8.58-8.781-8.556-22.996.054-31.747l64.046-65.102a21.705 21.705 0 0 1 31.125.054Z" fill="#43CDE9" mask="url(#b)"/><path d="M192.113 46c12.157 0 22.013 10.02 22.013 22.381v2.238c0 12.36-9.856 22.381-22.013 22.381-12.157 0-22.013-10.02-22.013-22.381v-2.238c0-12.36 9.856-22.381 22.013-22.381Z" fill="#53F3FD" mask="url(#b)"/></g><g fill="#FFF" fill-rule="nonzero"><path d="M618.485 265.21h-31.073v56.446H558V177.711h70.647c10.097.195 17.865 1.432 23.305 3.71 5.44 2.28 10.048 5.632 13.826 10.06a44.564 44.564 0 0 1 7.426 12.109c1.824 4.427 2.736 9.472 2.736 15.137 0 6.835-1.726 13.558-5.178 20.166-3.453 6.608-9.153 11.279-17.1 14.013 6.644 2.67 11.35 6.462 14.12 11.377 2.768 4.916 4.152 12.419 4.152 22.51v9.668c0 6.575.26 11.035.782 13.379.782 3.71 2.606 6.445 5.472 8.203v3.613h-33.125c-.912-3.19-1.563-5.761-1.954-7.715a70.842 70.842 0 0 1-1.27-12.402l-.196-13.379c-.13-9.18-1.808-15.3-5.032-18.36-3.225-3.06-9.267-4.59-18.126-4.59Zm18.272-26.17c5.993-2.735 8.99-8.139 8.99-16.212 0-8.724-2.899-14.583-8.697-17.578-3.257-1.693-8.142-2.54-14.657-2.54h-34.981v38.673h34.102c6.775 0 11.856-.781 15.243-2.344ZM786.162 292.066h-53.059l-9.967 29.59h-31.464l51.398-143.945h34.004l51.007 143.945h-32.637l-9.282-29.59Zm-8.404-24.804-17.98-56.64-18.565 56.64h36.545ZM934.686 318.14c-7.947 4.883-17.718 7.325-29.314 7.325-19.086 0-34.72-6.608-46.902-19.824-12.703-13.282-19.055-31.446-19.055-54.493 0-23.307 6.417-41.992 19.25-56.054C871.498 181.03 888.468 174 909.574 174c18.305 0 33.01 4.639 44.118 13.916 11.106 9.277 17.474 20.85 19.103 34.717h-29.608c-2.28-9.83-7.85-16.7-16.709-20.606-4.95-2.148-10.455-3.222-16.513-3.222-11.596 0-21.123 4.378-28.581 13.134-7.46 8.757-11.189 21.924-11.189 39.502 0 17.709 4.04 30.241 12.117 37.598 8.077 7.357 17.263 11.035 27.555 11.035 10.097 0 18.37-2.913 24.82-8.74 6.448-5.827 10.422-13.46 11.92-22.9h-33.32V244.41h59.996v77.246H953.35l-3.03-17.969c-5.797 6.836-11.009 11.654-15.634 14.454ZM1133.73 203.2h-72.211v33.105h63.22v25h-63.22v60.351h-29.9v-143.75h102.11zM1152.197 177.71h27.849v143.946h-27.849zM1296.032 228.688c8.99 11.263 13.484 24.576 13.484 39.94 0 15.626-4.495 28.989-13.484 40.089-8.99 11.1-22.637 16.65-40.942 16.65s-31.953-5.55-40.942-16.65c-8.99-11.1-13.485-24.463-13.485-40.088 0-15.365 4.495-28.678 13.485-39.942 8.99-11.263 22.637-16.894 40.942-16.894s31.952 5.631 40.942 16.894Zm-41.04 6.64c-8.143 0-14.413 2.881-18.81 8.643-4.397 5.761-6.596 13.98-6.596 24.658 0 10.677 2.199 18.913 6.596 24.707 4.397 5.794 10.667 8.691 18.81 8.691 8.143 0 14.396-2.897 18.761-8.691 4.365-5.794 6.547-14.03 6.547-24.707 0-10.677-2.182-18.897-6.547-24.658-4.365-5.762-10.618-8.643-18.761-8.643ZM1410.259 321.656l-16.709-77.539-16.904 77.54h-28.924l-29.9-106.446h29.9l16.612 76.367 15.34-76.367h28.24l16.22 76.66 16.612-76.66h29.02l-30.877 106.445z"/></g></g></svg>