<svg width="40" height="40" fill="none" xmlns="http://www.w3.org/2000/svg"><path d="M35 39.25H11A3.25 3.25 0 0 1 7.75 36V4A3.25 3.25 0 0 1 11 .75h16c.121 0 .238.048.323.134l10.793 10.793a.457.457 0 0 1 .134.323v24A3.25 3.25 0 0 1 35 39.25Z" stroke="#D0D5DD" stroke-width="1.5"/><path d="M27 .5V8a4 4 0 0 0 4 4h7.5" stroke="#D0D5DD" stroke-width="1.5"/><rect x="2" y="18" width="23" height="16" rx="2" fill="#444CE7"/><path d="M5.92 22.727h1.896l2.002 4.887h.086l2.002-4.887h1.897V30H12.31v-4.734h-.06l-1.882 4.699H9.353l-1.882-4.716h-.06V30H5.919v-7.273ZM17.647 30H15.07v-7.273h2.599c.732 0 1.361.146 1.89.437.527.289.933.704 1.217 1.246.287.543.43 1.191.43 1.947 0 .757-.143 1.408-.43 1.953a2.953 2.953 0 0 1-1.225 1.253c-.53.291-1.165.437-1.903.437Zm-1.04-1.317h.976c.454 0 .837-.081 1.147-.242.312-.163.547-.415.703-.756.159-.344.238-.786.238-1.328 0-.538-.08-.977-.238-1.318a1.54 1.54 0 0 0-.7-.753c-.31-.16-.692-.241-1.147-.241h-.98v4.637Z" fill="#fff"/></svg>