<svg class="icon" viewBox="0 0 1024 1024" xmlns="http://www.w3.org/2000/svg" width="200" height="200"><path d="M153.6 128h153.6v153.6H153.6zM768 128h153.6v153.6H768z" fill="#FECE00"/><path d="M153.6 281.6h153.6v153.6H153.6z" fill="#FFA301"/><path d="M153.6 588.8h153.6v153.6H153.6zM460.8 588.8h153.6v153.6H460.8zM768 588.8h153.6v153.6H768z" fill="#FE4900"/><path d="M614.4 281.6H768v153.6H614.4z" fill="#FFA301"/><path d="M153.6 435.2h153.6v153.6H153.6z" fill="#FF6F00"/><path d="M153.6 742.4h153.6V896H153.6zM768 742.4h153.6V896H768z" fill="#FE0107"/><path d="M614.4 435.2H768v153.6H614.4z" fill="#FF6F00"/><path d="M307.2 281.6h153.6v153.6H307.2zM768 281.6h153.6v153.6H768z" fill="#FFA301"/><path d="M307.2 435.2h153.6v153.6H307.2zM768 435.2h153.6v153.6H768zM460.8 435.2h153.6v153.6H460.8z" fill="#FF6F00"/><path d="M102.4 128h51.2v768h-51.2zM716.8 128H768v153.6h-51.2zM563.2 281.6h51.2v153.6h-51.2zM409.6 588.8h51.2v153.6h-51.2zM716.8 588.8H768V896h-51.2z" fill="#191D1D"/></svg>