<svg class="icon" viewBox="0 0 1024 1024" xmlns="http://www.w3.org/2000/svg" width="200" height="200"><path d="M572.33 597.333H298.668V512H572.33l-77.995-77.995 60.33-60.373 181.035 181.035-60.373 60.33-120.661 120.704-60.331-60.373 77.995-77.995zM533.334 263.51h320a85.333 85.333 0 0 1 85.334 85.334v461.824A85.333 85.333 0 0 1 853.333 896H170.667a85.333 85.333 0 0 1-85.334-85.333V213.333A85.333 85.333 0 0 1 170.667 128H412.16a85.333 85.333 0 0 1 76.117 46.72l45.056 88.79zm0 85.334a85.333 85.333 0 0 1-76.117-46.72l-45.013-88.79H170.667v597.334h682.666V348.843h-320z" fill="#666"/></svg>