<svg width="207" height="144" fill="none" xmlns="http://www.w3.org/2000/svg"><path d="M25.938 107.812V0h6.25v143.75h-6.25L7.188 35.937V143.75H.938V0h6.25l18.75 107.812ZM64.023 137.5c1.693 0 3.125-.586 4.297-1.758 1.302-1.172 1.953-2.669 1.953-4.492V12.5c0-1.693-.65-3.125-1.953-4.297-1.172-1.302-2.604-1.953-4.297-1.953-1.822 0-3.32.651-4.492 1.953-1.172 1.172-1.758 2.604-1.758 4.297v118.75c0 1.823.586 3.32 1.758 4.492 1.172 1.172 2.67 1.758 4.492 1.758Zm0 6.25c-3.515 0-6.51-1.172-8.984-3.516-2.344-2.474-3.516-5.468-3.516-8.984V12.5c0-3.385 1.172-6.315 3.516-8.79C57.513 1.238 60.508 0 64.023 0c3.386 0 6.316 1.237 8.79 3.71 2.474 2.475 3.71 5.405 3.71 8.79v118.75c0 3.516-1.236 6.51-3.71 8.984-2.475 2.344-5.404 3.516-8.79 3.516ZM131.797 0h6.25v143.75h-6.25V25l-15.625 62.5L100.547 25v118.75h-6.25V0h6.25l15.625 62.5L131.797 0ZM156.602 143.75V0h6.25v143.75h-6.25ZM193.906 143.75c-3.515 0-6.51-1.172-8.984-3.516-2.344-2.474-3.516-5.468-3.516-8.984V12.5c0-3.385 1.172-6.315 3.516-8.79 2.474-2.473 5.469-3.71 8.984-3.71 3.386 0 6.315 1.237 8.789 3.71 2.474 2.475 3.711 5.405 3.711 8.79V25h-6.25V12.5c0-1.693-.651-3.125-1.953-4.297-1.172-1.302-2.604-1.953-4.297-1.953-1.823 0-3.32.651-4.492 1.953-1.172 1.172-1.758 2.604-1.758 4.297v118.75c0 1.823.586 3.32 1.758 4.492 1.172 1.172 2.669 1.758 4.492 1.758 1.693 0 3.125-.586 4.297-1.758 1.302-1.172 1.953-2.669 1.953-4.492v-12.5h6.25v12.5c0 3.516-1.237 6.51-3.711 8.984-2.474 2.344-5.403 3.516-8.789 3.516Z" fill="#3C593D"/></svg>