<svg class="icon" viewBox="0 0 1360 1024" xmlns="http://www.w3.org/2000/svg" width="200" height="200"><path d="M730.781 627.126 445.446 261.929 839.641 93.584c12.583-4.92 25.076-1.528 33.05 8.674l115.786 146.104 13.49-12.182L887.993 90.296c-12.751-16.312-35.134-21.827-54.63-13.166L435.31 246.847c-1.023.777-2.045 1.593-3.068 2.382-3.055 2.395-5.308 5.8-4.971 10.46-.44 3.625-.09 8.286 2.304 11.34l295.679 378.48 237.552-101.805 2.447-19.988-234.472 99.41z" fill="#6F72AF"/><path d="m721.409 650.88-83.15-224.192c-8.234-23.147 3.184-48.494 25.762-59.55l362.866-153.73c11.806-5.928 23.73-5.397 36.002-.193 12.272 5.19 21.27 14.602 25.373 26.163l77.091 205.913c2.745 7.716-.194 16.57-8.932 20.118l-435 185.472zm324.935-423.089c-3.625-.44-7.495.933-11.353 2.292L672.138 383.838a29.296 29.296 0 0 0-16.403 35.795l76.069 206.703 415.516-176.773-75.486-203.868a26.098 26.098 0 0 0-15.6-15.755c-2.614-1.242-6.24-1.683-9.877-2.136z" fill="#6F72AF"/><path d="M169.031 650.389c-7.974-10.214-7.21-23.95-.414-34.177l262.537-343.137L716.49 638.272l-46.19 60.74 28.61-7.56 40.636-53.103-295.69-378.465c-5.58-7.146-14.668-8.26-21.814-2.68l-3.055 2.382L154.17 606.14c-13.14 16.829-13.205 39.872-.44 56.184L264.504 804.13l20.882-4.816-116.356-148.94z" fill="#6F72AF"/><path d="M440.747 1021.281c-2.848.583-6.253-1.683-8.868-2.925L253.58 893.17c-10.227-6.796-17.192-17.787-19.263-30.953-2.071-13.165 1.308-25.67 8.894-34.875l242.86-317.88c15.405-20.247 43.549-24.17 64.016-10.59l193.537 136.279-291.082 380.213c-3.289 4.208-8.156 6.37-11.794 5.93zm-3.443-17.01zm85.777-495.792a27.393 27.393 0 0 0-22.577 11.055l-242.86 317.88a21.101 21.101 0 0 0-4.48 21.58c.92 7.496 4.687 14.41 11.51 18.94l174.662 124.745 277.956-363.385-177.51-124.148c-5.01-4.311-11.263-6.007-16.7-6.667z" fill="#6F72AF"/><path d="m754.73 2.59-6.472 19.418a25.644 25.644 0 0 1-14.24 14.24l-19.419 6.473c-1.294 0-2.589 1.294-1.294 2.589 0 1.294 1.294 1.294 1.294 1.294l19.419 6.473a25.644 25.644 0 0 1 14.24 14.24l6.473 19.419c0 1.294 1.294 2.589 2.589 1.294 1.294 0 1.294-1.294 1.294-1.294l6.473-19.419a25.644 25.644 0 0 1 14.24-14.24l19.419-6.473c1.294 0 2.589-1.294 1.294-2.589 0-1.294-1.294-1.294-1.294-1.294l-19.419-6.473a25.644 25.644 0 0 1-14.24-14.24l-6.473-19.419c0-1.294-1.294-2.589-2.589-1.294 0 0-1.294 0-1.294 1.294zM147.58 818.163l-11.65 33.659c-1.295 5.178-5.18 7.767-10.357 10.357l-33.659 11.65c-1.295 0-1.295 1.295-1.295 2.59 0 0 0 1.294 1.295 1.294l33.659 11.651c5.178 1.295 7.767 5.179 10.356 10.357l11.651 33.659c0 1.294 1.295 1.294 2.59 1.294 0 0 1.294 0 1.294-1.294l11.651-33.66c1.295-5.177 5.178-7.767 10.357-10.356l33.658-11.65c1.295 0 1.295-1.295 1.295-2.59 0 0 0-1.294-1.295-1.294l-33.658-11.651c-5.179-1.295-7.768-5.179-10.357-10.357l-11.651-33.659c-1.295-1.294-2.59-2.589-3.884 0 0-1.294 0-1.294 0 0zm543.717 142.402-5.178 12.946c-1.295 5.178-5.178 7.767-10.357 10.357l-14.24 5.178c-1.294 0-1.294 1.294-1.294 2.589 0 0 0 1.294 1.294 1.294l14.24 5.179c5.179 1.294 7.768 5.178 10.357 10.356l5.178 14.24c0 1.295 1.295 1.295 2.59 1.295 0 0 1.294 0 1.294-1.295l5.178-14.24c1.295-5.178 5.178-7.767 10.357-10.356l14.24-5.179c1.294 0 1.294-1.294 1.294-2.589 0 0 0-1.294-1.294-1.294l-15.535-5.178c-5.178-1.295-7.767-5.179-10.357-10.357l-5.178-14.24s-1.294 0-2.589 1.294c0-1.294 0-1.294 0 0zM49.193 249.851l-7.767 20.713c-2.59 7.767-9.062 14.24-16.83 16.83L3.885 295.16c-1.295 0-2.59 2.589-1.295 3.883 0 1.295 1.295 1.295 1.295 1.295l20.713 7.767c7.767 2.59 14.24 9.062 16.829 16.83l7.767 22.007c0 1.295 2.59 2.59 3.884 1.295 1.295 0 1.295-1.295 1.295-1.295l7.767-20.713c2.59-9.062 9.062-15.535 16.83-18.124l22.007-7.767c1.295 0 2.59-2.59 1.295-3.884 0-1.294-1.295-1.294-1.295-1.294l-20.713-6.473c-9.062-3.884-15.535-10.357-18.124-18.124l-7.767-22.008c0-1.294-2.59-2.589-3.884-1.294 0 0-1.295 1.294-1.295 2.589zM1175.464 3.884l-14.24 40.131c-2.59 7.768-9.062 14.24-16.83 16.83l-40.131 14.24c-1.295 0-2.59 2.589-1.295 3.883 0 1.295 1.295 1.295 1.295 1.295l40.131 14.24c7.768 2.59 14.24 9.062 16.83 16.83l14.24 40.131c0 1.295 2.59 2.59 3.884 1.295 1.294 0 1.294-1.295 1.294-1.295l14.24-40.132c2.59-7.767 9.062-14.24 16.83-16.829l41.426-14.24c1.294 0 2.589-2.59 1.294-3.884 0-1.294-1.294-1.294-1.294-1.294l-40.132-14.24c-9.062-2.59-15.534-9.062-18.124-16.83l-14.24-41.426c0-1.294-2.589-2.589-3.883-1.294-1.295 0-1.295 1.294-1.295 2.589z" fill="#DBE0F4"/><path d="m438.857 1021.41-6.473-16.828 447.92-187.712 269.269-372.835 15.534 10.357-273.153 378.013z" fill="#6F72AF"/><path d="M1244.076 844.056c-29.775-11.651-45.31-45.31-34.953-75.085 11.65-29.775 45.31-45.31 75.084-34.953 29.775 11.65 45.31 45.31 34.954 75.084-11.652 29.775-45.31 45.31-75.085 34.954zm-54.372-28.48c-16.83-15.536-15.535-33.66-11.65-46.605 5.177-15.535 15.534-27.186 22.007-29.775l2.589 2.59c-5.178 6.472-7.768 12.945-10.357 19.418-6.473 18.123-6.473 36.247 0 53.077-1.294 1.294-1.294 1.294-2.589 1.294zm-37.542-2.59-2.59-1.294c-11.65-20.713-5.178-45.31 3.884-62.14 7.768-14.24 15.535-19.418 18.124-19.418 1.295 0 2.59 0 3.884-1.295 2.59 0 5.178 1.295 7.767 1.295-9.062 9.062-18.124 20.713-22.007 33.659-6.473 18.124-3.884 37.542 6.473 53.077l-15.535-3.884zm-37.543-60.844c1.295-3.884 12.946-14.24 28.48-19.419-1.294 2.59-2.588 5.178-5.177 7.768-7.768 14.24-12.946 32.364-12.946 50.488-10.357-15.535-12.946-32.365-10.357-38.837zm221.37-50.488c3.885 1.294 5.18 5.178 3.885 9.062-1.295 3.883-5.179 5.178-9.062 3.883-3.884-1.294-5.179-5.178-3.884-9.062 1.295-3.883 5.178-5.178 9.062-3.883zm-120.394-15.535c-3.883-1.295-5.178-5.178-3.883-9.062 1.294-3.884 5.178-5.178 9.062-3.884 3.883 1.295 5.178 5.178 3.883 9.062-2.589 3.884-6.472 5.178-9.062 3.884zm102.271 47.899 5.178-5.179 2.59 1.295c12.945 5.178 27.185-1.295 31.069-14.24 5.178-12.946-1.295-27.186-14.24-32.364-12.946-5.179-27.186 1.294-31.07 14.24-2.589 5.178-2.589 11.651 0 16.83l-6.473 6.472c-3.883-2.59-9.062-5.178-12.945-6.473-15.535-6.473-32.364-6.473-47.9-1.294l-9.061-16.83c2.589-2.589 5.178-5.178 6.473-9.062 5.178-12.945-1.295-27.185-14.24-32.364-12.946-5.178-27.186 1.295-31.07 14.24-5.178 12.946 1.295 27.186 14.24 32.365 2.59 1.294 6.473 1.294 9.062 1.294l7.768 16.83c-3.884 2.589-7.768 3.883-10.357 7.767-2.59-2.59-5.178-3.884-9.062-6.473 0 0-1.294 0-1.294-1.295-5.179-3.883-11.652-6.472-18.124-9.061-36.248-12.946-77.674 9.061-89.325 27.185-2.59-1.294-5.179-2.589-7.768-1.294-7.767 1.294-15.534 3.884-22.007 5.178-5.179 1.295-7.768 6.473-6.473 11.651 1.294 2.59 2.589 5.178 5.178 6.473 1.295 0 3.884 1.295 5.178 0 7.768-1.295 14.24-3.884 22.008-5.178 0 22.007 15.535 53.077 41.426 68.612h1.295c2.589 1.294 5.178 2.589 7.767 2.589 14.24 5.178 28.48 6.473 42.72 5.178h2.59c3.883 0 6.473-1.295 10.356-2.59 9.062 12.946 20.713 23.303 36.248 29.776 38.837 14.24 84.147-5.178 98.387-45.31 10.356-27.186 2.589-58.255-18.124-78.968zm-291.277 20.713c-14.24 2.589-29.775 6.473-44.015 9.062-5.178 1.294-7.767 5.178-7.767 10.356 0 3.884 2.589 6.473 5.178 6.473h5.178c14.24-2.59 28.48-5.178 44.015-7.767 5.179-1.295 7.768-5.179 6.473-10.357 0-5.178-5.178-9.062-9.062-7.767zm-176.06 23.302c-15.535 1.294-29.776 1.294-44.016 0-5.178 0-9.062 3.884-9.062 9.062 0 3.884 2.59 7.767 6.473 9.062 1.295 0 2.59 1.294 2.59 1.294h45.309c5.178 0 9.062-3.883 9.062-9.062-1.295-6.472-5.178-10.356-10.357-10.356zm88.03-7.768c-14.24 2.59-29.775 3.884-44.015 5.179-5.179 0-9.062 5.178-7.768 10.356 0 3.884 2.59 6.473 5.178 7.768h3.884c14.24-1.295 29.775-2.59 44.015-5.179 5.179-1.294 7.768-5.178 7.768-10.356 1.294-5.178-3.884-9.062-9.062-7.768zm-174.766 6.473c-15.535-1.294-29.775-3.883-42.72-6.473-5.18-1.294-10.357 2.59-10.357 6.473-1.295 5.179 1.294 9.062 5.178 10.357h1.294c14.24 2.589 29.775 5.178 45.31 6.473 5.178 0 9.062-3.884 10.357-7.768-1.295-3.883-5.179-9.062-9.062-9.062z" fill="#6F72AF"/></svg>