<svg class="icon" viewBox="0 0 1024 1024" xmlns="http://www.w3.org/2000/svg" width="200" height="200"><path d="M0 512a512 512 0 1 0 1024 0A512 512 0 1 0 0 512Z" fill="#A663E6"/><path d="M845.568 442.283a189.227 189.227 0 0 0-16.725-157.142c-42.496-72.96-127.83-110.421-211.2-92.8a198.4 198.4 0 0 0-186.966-60.16A195.84 195.84 0 0 0 284.331 261.76a194.005 194.005 0 0 0-129.707 92.8 191.445 191.445 0 0 0 24.064 227.115 189.056 189.056 0 0 0 16.555 157.141c42.538 72.96 127.957 110.464 211.37 92.8A195.37 195.37 0 0 0 552.875 896c85.461.085 161.152-54.357 187.264-134.613a194.176 194.176 0 0 0 129.664-92.8 191.744 191.744 0 0 0-24.235-226.304zM552.875 845.739a146.432 146.432 0 0 1-93.312-33.28l4.608-2.56 155.008-88.278a25.387 25.387 0 0 0 12.714-21.76V484.267l65.536 37.376a2.261 2.261 0 0 1 1.28 1.664v178.645c-.213 79.36-65.365 143.616-145.834 143.787zM239.488 713.728a141.397 141.397 0 0 1-17.323-96.427l4.608 2.688 155.136 88.32c7.808 4.48 17.494 4.48 25.302 0l189.568-107.818v74.624a2.56 2.56 0 0 1-1.067 1.962L438.699 766.38c-69.76 39.637-158.891 16.085-199.211-52.651zm-40.875-333.056a145.067 145.067 0 0 1 76.8-63.147V499.2c-.128 8.96 4.694 17.195 12.544 21.632l188.672 107.35-65.536 37.375a2.475 2.475 0 0 1-2.304 0l-156.714-89.173a143.061 143.061 0 0 1-53.462-196.48v.768zm538.454 123.35L547.84 395.647l65.365-37.248a2.475 2.475 0 0 1 2.304 0l156.672 89.301a143.317 143.317 0 0 1 72.491 136.534 144.085 144.085 0 0 1-94.421 122.837V525.355a25.259 25.259 0 0 0-13.227-21.334zm65.194-96.726-4.565-2.73-154.88-89.046a25.472 25.472 0 0 0-25.472 0L427.947 423.339v-74.667a2.133 2.133 0 0 1 .896-1.92l156.714-89.173a147.67 147.67 0 0 1 156.331 6.698A143.147 143.147 0 0 1 802.261 406.7v.597zm-410.026 132.31-65.579-37.249a2.56 2.56 0 0 1-1.237-1.834V322.389a143.872 143.872 0 0 1 84.096-130.133 147.627 147.627 0 0 1 155.178 19.627l-4.608 2.56-155.008 88.277a25.387 25.387 0 0 0-12.757 21.76l-.128 215.125zm35.541-75.691 84.437-48 84.566 48v96l-84.267 48-84.565-48-.171-96z" fill="#FFF"/></svg>