<svg width="60" height="60" fill="none" xmlns="http://www.w3.org/2000/svg"><path d="M29.789.216C13.345.216 0 13.542 0 29.986c0 8.106 3.248 15.467 8.515 20.836V30.014a21.169 21.169 0 0 1 6.226-15.048c4.03-4.03 9.371-6.226 15.057-6.226h.177l-.186.019c11.753 0 21.283 9.53 21.283 21.274 0 1.023-.075 2.028-.214 3.024l-12.024-12.06a12.707 12.707 0 0 0-9.027-3.732c-3.406 0-6.616 1.33-9.026 3.731a12.676 12.676 0 0 0-3.742 9.037c0 3.415 1.331 6.616 3.741 9.036 2.401 2.4 5.621 3.731 9.027 3.731 3.406 0 6.617-1.33 9.027-3.731a12.693 12.693 0 0 0 3.713-8.31l7.054 7.081c-3.117 7.892-10.804 13.485-19.803 13.485-4.662 0-9.11-1.49-12.768-4.253v9.846a29.567 29.567 0 0 0 12.75 2.866c16.443 0 29.788-13.326 29.788-29.77C59.587 13.552 46.251.225 29.798.225l-.01-.01Z" fill="#0062E2"/></svg>