<svg class="icon" viewBox="0 0 1024 1024" xmlns="http://www.w3.org/2000/svg" width="200" height="200"><path d="M509.952 260.864c-152.832 0-277.248 124.416-277.248 277.248S357.12 815.36 509.952 815.36 787.2 690.944 787.2 538.112 662.784 260.864 509.952 260.864zm0 485.376c-114.688 0-208.128-93.44-208.128-208.128 0-114.688 93.44-208.128 208.128-208.128s208.128 93.44 208.128 208.128C717.824 652.8 624.64 746.24 509.952 746.24zM509.952 211.2a39.551 39.551 0 0 0 39.68-39.68V77.056c0-22.016-17.664-39.68-39.68-39.68s-39.68 17.664-39.68 39.68v94.464c0 21.76 17.664 39.68 39.68 39.68zM134.144 538.88H39.68C17.664 538.88 0 556.544 0 578.56s17.664 39.68 39.68 39.68h94.464c22.016 0 39.68-17.664 39.68-39.68s-17.92-39.68-39.68-39.68zM984.32 538.88h-94.464c-22.016 0-39.68 17.664-39.68 39.68s17.664 39.68 39.68 39.68h94.464c22.016 0 39.68-17.664 39.68-39.68s-17.664-39.68-39.68-39.68zM901.632 196.864c-15.616-15.616-40.704-15.616-56.064 0l-66.816 66.816c-15.616 15.616-15.616 40.704 0 56.064 7.68 7.68 17.92 11.52 28.16 11.52 10.24 0 20.224-3.84 28.16-11.52l66.816-66.816c15.104-15.36 15.104-40.704-.256-56.064zM241.152 263.424l-66.816-66.816c-15.616-15.616-40.704-15.616-56.064 0-15.616 15.616-15.616 40.704 0 56.064l66.816 66.816c7.68 7.68 17.92 11.52 28.16 11.52 10.24 0 20.224-3.84 28.16-11.52 15.36-15.36 15.36-40.448-.256-56.064zM605.184 866.56H414.72c-13.056 0-23.808 9.472-23.808 21.248s10.752 21.248 23.808 21.248h190.464c13.056 0 23.808-9.472 23.808-21.248s-10.752-21.248-23.808-21.248zM577.536 944.384H442.368c-13.056 0-23.808 9.472-23.808 21.248s10.752 21.248 23.808 21.248h135.168c13.056 0 23.808-9.472 23.808-21.248s-10.752-21.248-23.808-21.248z" fill="#667085"/></svg>