<svg xmlns="http://www.w3.org/2000/svg" width="80" height="80"><path d="m19.019 2.839 3.095-.03 3.343-.012 3.442-.017c2.405-.01 4.81-.016 7.215-.02 3.674-.01 7.347-.041 11.02-.073l7.01-.015 3.325-.038c5.579.017 9.76.12 14.531 3.366 3.912 4.229 5.118 7.33 5.161 13.019l.03 3.095.012 3.343.017 3.442c.01 2.405.016 4.81.02 7.215.01 3.674.041 7.347.072 11.02.007 2.337.012 4.674.016 7.01l.038 3.325c-.017 5.579-.12 9.76-3.366 14.531-4.229 3.912-7.33 5.118-13.019 5.161l-3.095.03-3.343.012-3.442.017c-2.405.01-4.81.016-7.215.02-3.674.01-7.347.041-11.02.072-2.337.007-4.674.012-7.01.016l-3.325.038C16.952 77.349 12.771 77.246 8 74c-3.912-4.229-5.118-7.33-5.161-13.019l-.03-3.095-.012-3.343-.017-3.442c-.01-2.405-.016-4.81-.02-7.215-.01-3.674-.041-7.347-.073-11.02l-.015-7.01-.038-3.325C2.651 16.952 2.754 12.771 6 8c4.229-3.912 7.33-5.118 13.019-5.161Z" fill="#8359F6"/><path d="m55.563 8.625 2.326-.074c5.598-.03 5.598-.03 8.111 2.316 1.258 2.684 1.513 4.203 1 7.133-1.313 2.25-1.313 2.25-4 4-1.805.233-3.62.392-5.438.5-3.556.223-5.452.445-8.687 2.063C46.207 28.03 46.217 30.66 46 35l3.324-.14c1.455-.038 2.909-.075 4.364-.11l2.185-.102c3.857-.07 5.74.122 9.143 2.145C67 39 67 39 67.062 42.563 65.87 46.423 65.487 47.153 62 49c-2.834.213-5.43.285-8.25.188l-2.258-.042A451.953 451.953 0 0 1 46 49l.105 3.734C46.1 57.661 44.775 60.947 42 65c-4.542 4.425-9.12 6.285-15.438 6.375-5.813-.125-8.94-1.638-12.996-5.871-4.701-5.341-4.918-9.691-4.843-16.559.512-5.441 3.432-8.308 7.34-11.758 3.886-2.894 6.41-3.31 11.125-3.25l2.73.028L32 34l-.25-2.875c.036-5.858 2.037-11.624 5.934-16.027C39.402 13.586 41.08 12.246 43 11l1.684-1.133c3.583-1.341 7.083-1.236 10.879-1.242Z" fill="#FCFBFE"/><path d="M31 48c2 2 2 2 2.313 4.438C33 55 33 55 31.936 56.874c-3.053 1.773-5.601.817-8.937.125-1.326-6.387-1.326-6.387.063-9 2.909-1.502 4.855-.853 7.937 0Z" fill="#885FF6"/></svg>