<svg class="icon" viewBox="0 0 1090 1024" xmlns="http://www.w3.org/2000/svg" width="212.891" height="200"><path d="M830.56 864.252c-20.713 29.136-47.5 51.92-76.084 72.495-84.232 60.757-178.82 85.474-281.83 77.327-167.496-13.118-320.355-139.05-363.713-302.128-43.497-163.216-5.524-306.27 114.057-426.404 58.962-59.238 119.028-117.233 178.68-175.78 3.039-3.039 5.524-7.043 11.324-8.7 2.623 7.594-1.105 14.775-1.933 21.679-9.666 84.784 15.465 160.592 59.376 231.429 31.759 51.367 71.251 96.52 118.062 134.218 57.857 46.672 64.209 123.033 30.516 175.504-38.663 60.205-121.238 77.604-180.061 37.007-3.038-2.071-7.457-3.314-8.286-9.252 8.01.277 15.742 2.624 23.475.829 18.503-4.419 31.207-15.466 36.04-33.969 4.833-18.641-.829-34.659-15.604-46.672-42.668-34.797-82.574-72.494-115.438-117.096-12.428-16.846-23.612-34.659-34.66-54.128-16.57 18.64-27.892 39.077-36.453 60.895-42.945 109.638-6.767 225.767 90.997 294.257 7.18 4.97 14.775 9.528 21.265 15.465 1.519 1.52 2.9 3.314 4.695 4.557 56.2 37.697 116.819 64.623 184.066 75.118 47.777 7.456 95.692 8.147 143.884 3.452 34.935-3.314 67.246-13.256 97.625-30.103z" fill="#3EC7F8"/><path d="M513.933 5.784C575.381 66.126 636 125.64 696.48 185.017c36.316 35.626 72.909 71.251 108.949 107.153 66.418 66.142 105.772 146.093 120.27 238.471.553 3.59.83 7.043.967 10.633 0 1.104-.552 2.21-.828 3.314-3.314.276-4.004-2.21-4.833-4.143-22.922-47.363-60.895-77.05-109.639-94.311-25.683-9.114-52.472-14.36-78.708-21.403-65.728-17.399-124.966-45.982-168.186-100.663-35.073-44.464-53.853-95.14-53.577-152.307.276-50.539 0-100.94.138-151.478-.138-4.281-2.209-9.528 2.9-14.5z" fill="#E90302"/><path d="M830.56 864.252c-30.379 16.847-62.69 26.65-97.35 30.103-48.19 4.695-96.106 4.004-143.883-3.452-67.247-10.495-127.866-37.421-184.066-75.118-1.795-1.243-3.176-3.038-4.695-4.557 5.385-1.795 9.39 1.795 13.809 3.728 151.064 65.867 321.735-36.04 335.682-200.36 3.728-43.358-3.452-84.507-21.403-123.86-1.105-2.486-2.21-4.834-3.176-7.32-.276-.69.138-1.656.138-2.623 3.866-3.314 7.733-.414 11.323.414 46.672 10.218 88.65 30.103 124.414 62 48.33 43.22 67.937 97.35 53.162 160.592-13.808 60.066-41.977 114.195-83.955 160.453z" fill="#1753D7"/></svg>