<svg class="icon" viewBox="0 0 1024 1024" xmlns="http://www.w3.org/2000/svg" width="200" height="200"><path d="M511.978 992C247.701 992 32.686 776.963 32.686 512.686S247.702 33.372 511.978 33.372c76.843 0 153.272 18.628 221.05 53.901a481.037 481.037 0 0 1 111.745 80.459c94.491 91.135 146.54 213.665 146.54 344.953 0 264.277-215.037 479.314-479.335 479.314zm0-916.949c-241.313 0-437.614 196.323-437.614 437.635 0 241.291 196.323 437.635 437.614 437.635 241.312 0 437.657-196.344 437.657-437.635 0-119.872-47.539-231.727-133.816-314.975a439.138 439.138 0 0 0-102.072-73.488C651.066 91.586 583.178 75.05 511.977 75.05zm-2.789 808.908c-204.928 0-371.643-166.714-371.643-371.664S304.26 140.652 509.189 140.652c68.825 0 136.059 18.977 194.406 54.838 9.804 6.035 12.877 18.867 6.819 28.672-6.013 9.804-18.89 12.832-28.65 6.841-51.766-31.831-111.462-48.672-172.575-48.672-181.943 0-329.964 148.021-329.964 329.986 0 181.943 148.021 329.986 329.964 329.986 181.965 0 329.986-148.042 329.986-329.986 0-11.503 9.324-20.85 20.828-20.85 11.526 0 20.85 9.324 20.85 20.85.022 204.928-166.736 371.643-371.664 371.643zm.022-493.497c-42.136 0-76.407-34.271-76.407-76.407s34.271-76.429 76.407-76.429 76.429 34.293 76.429 76.429-34.293 76.407-76.429 76.407zm0-111.158c-19.15 0-34.75 15.599-34.75 34.75s15.599 34.729 34.75 34.729c19.15 0 34.75-15.577 34.75-34.729s-15.599-34.75-34.75-34.75z" fill="#c2b909"/></svg>