<svg width="24" height="24" fill="none" xmlns="http://www.w3.org/2000/svg"><g clip-path="url(#a)"><mask id="b" style="mask-type:luminance" maskUnits="userSpaceOnUse" x="0" y="0" width="24" height="24"><path d="M24 0H0v24h24V0Z" fill="#fff"/></mask><g mask="url(#b)"><mask id="c" style="mask-type:luminance" maskUnits="userSpaceOnUse" x="0" y="0" width="24" height="24"><path d="M24 0H0v24h24V0Z" fill="#fff"/></mask><g mask="url(#c)"><path d="M19.765 0H4.235A4.235 4.235 0 0 0 0 4.235v15.53A4.235 4.235 0 0 0 4.235 24h15.53A4.235 4.235 0 0 0 24 19.765V4.235A4.235 4.235 0 0 0 19.765 0Z" fill="#F1EFED"/><path d="M17.118 11.47a4.235 4.235 0 1 0 0-8.47 4.235 4.235 0 0 0 0 8.47ZM17.118 21.353a4.235 4.235 0 1 0 0-8.47 4.235 4.235 0 0 0 0 8.47ZM7.235 21.353a4.235 4.235 0 1 0 0-8.47 4.235 4.235 0 0 0 0 8.47Z" fill="#D3D1D1"/><path d="M7.235 11.47a4.235 4.235 0 1 0 0-8.47 4.235 4.235 0 0 0 0 8.47Z" fill="#0F6FFF"/></g></g></g><defs><clipPath id="a"><path fill="#fff" d="M0 0h24v24H0z"/></clipPath></defs></svg>