<svg version="1.0" xmlns="http://www.w3.org/2000/svg" width="133.333" height="25.333" viewBox="0 0 300 57"><g fill="currentColor"><path d="M250.5 20.2c-3.8 8.4-8.6 18.8-10.6 23l-3.8 7.8h2.7c2.4 0 3-.7 5.5-7.5l2.8-7.5h20l2.5 5.5c1.3 3.1 2.4 6.4 2.4 7.5 0 1.7.7 2 4.4 2h4.3l-3.7-7.3c-2-3.9-6.8-14.3-10.6-22.9-3.8-8.7-7.4-15.8-8-15.8-.5 0-4.1 6.9-7.9 15.2zm11 3c2.2 5.1 4.1 9.5 4.2 9.8.2.3-3.6.6-8.3.7-7.6.1-8.5 0-8.1-1.5 1.2-4 7.2-18.2 7.7-18.2.3 0 2.4 4.1 4.5 9.2zM6.3 7.7c1.9 6.1 19.7 43.8 20.9 44 1 .2 14.7-28.2 21.6-44.9.2-.4-1-.8-2.7-.8-2.3 0-3.1.5-3.1 1.7 0 1.6-14.2 36.5-14.6 36-.8-1.1-14.4-32.9-14.9-35C12.9 6.4 12.3 6 9.3 6c-2.9 0-3.4.3-3 1.7zM285.5 28.5V51h6V6h-6v22.5zM58.8 19c-5.5 3-8.2 7.4-8.6 14.5-.3 5 0 6.6 2 9.5 3.9 5.8 8.2 8 15.3 8 6.8 0 11-2.1 14.9-7.3 3.2-4.3 3-15-.3-19.6-4.7-6.6-15.8-9-23.3-5.1zm13.3 1.6c5.9 3 8.9 15.6 5.4 22.4-4.5 8.7-16.2 7.8-20.1-1.6-1.8-4.4-1.8-12.8.1-16.4 2.8-5.5 9-7.3 14.6-4.4zM93.5 26.7l7.6 9.8-.7 7.2-.6 7.3H106.5l-.3-7.8-.4-7.7 7.1-9.3c6.5-8.5 6.8-9.2 4.6-9.2-1.5 0-2.9.9-3.6 2.2-1.8 3.3-9 12.8-9.8 12.8-.6-.1-6.7-8.5-8.8-12.2-.8-1.5-2.4-2.3-5.3-2.5l-4.1-.4 7.6 9.8zM125.7 34c-8.2 16.9-8.3 17-5.7 17 1.7 0 2.7-.6 2.7-1.5 0-.8.7-3.1 1.7-5.2l1.7-3.8h7.9l7.8-.1 1.6 3.4c.9 1.8 1.6 4.2 1.6 5.2 0 1.7.7 2 4.1 2 2.2 0 3.9-.3 3.7-.8-.2-.4-3.9-8-8.3-17-4.3-8.9-8.4-16.2-9.2-16.2-.7 0-5 7.6-9.6 17zm9 3.8c-3.3.2-6.1.1-6.3-.1-.2-.2 1-3.4 2.6-7.1l3.1-6.8 3.3 6.8 3.3 6.9-6 .3zM166.5 18.4c-3.7 1.6-8.4 6.3-9.7 9.6-1.3 3.5-1.2 10.4.2 13.2 4.9 9.4 18.2 13.4 28 8.3 2.4-1.2 2.9-2.2 3.2-6.4.3-4.9.3-4.9-3-5.3l-3.3-.4.3 4.5c.4 6.1-.5 7.1-6 7.1-9.3 0-14.2-5.7-14.2-16.4 0-4.4.5-6 2.5-8.5 4.7-5.5 13.6-6.5 18.4-2 3 2.8 3.5 2 1.1-1.9-1.9-3.1-2.2-3.2-8.2-3.2-3.5.1-7.6.7-9.3 1.4zM195.5 34v17h9.1c7.6 0 9.3-.3 9.8-1.6.4-.9.5-1.8.4-2-.2-.1-3.1.1-6.6.5-3.4.4-6.4.5-6.7.3-.3-.3-.5-3.6-.5-7.3v-6.8l5.5.6c4.9.5 5.5.4 5.5-1.3 0-1.7-.6-1.9-5.5-1.6l-5.5.4V20h6.4c4.8 0 6.5-.4 7-1.5.4-1.3-1-1.5-9.2-1.5h-9.7v17z"/></g></svg>