<svg width="28" height="28" xmlns="http://www.w3.org/2000/svg" xmlns:xlink="http://www.w3.org/1999/xlink"><defs><path id="a" d="M.171.093h9.275v9.831H.17z"/></defs><g fill="none" fill-rule="evenodd"><path fill="#6001D2" d="M0 0h28v28H0z"/><path fill="#FFF" d="m14.708 11-2.662 6.42L9.406 11H5l4.912 11.027L8.144 26h4.315L19 11zM19.887 16.877c-1.584 0-2.773 1.191-2.773 2.578 0 1.363 1.143 2.49 2.68 2.49 1.585 0 2.773-1.17 2.773-2.577 0-1.386-1.141-2.49-2.68-2.49"/><g transform="translate(18.435 6)"><mask id="b" fill="#fff"><use xlink:href="#a"/></mask><path fill="#FFF" mask="url(#b)" d="M4.552.093.172 9.924h4.893l4.38-9.83z"/></g></g></svg>