<svg width="600" height="600" fill="none" xmlns="http://www.w3.org/2000/svg"><circle cx="300" cy="300" r="300" fill="#fff"/><rect x="409.733" y="340.032" width="42.386" height="151.648" rx="21.193" fill="#003425"/><path fill-rule="evenodd" clip-rule="evenodd" d="M422.005 133.354c-8.916-7.583-22.291-6.503-29.874 2.414L273.699 275.021a21.099 21.099 0 0 0-5.001 12.281 21.358 21.358 0 0 0-.252 3.279v178.022c0 11.705 9.488 21.193 21.193 21.193 11.705 0 21.193-9.488 21.193-21.193V296.784l113.587-133.556c7.583-8.916 6.502-22.291-2.414-29.874Z" fill="#003425"/><rect x="113.972" y="134.25" width="42.386" height="174.745" rx="21.193" transform="rotate(-39.344 113.972 134.25)" fill="#003425"/><circle cx="460.126" cy="279.278" r="25.903" fill="#00DD20"/></svg>