<svg class="icon" viewBox="0 0 1024 1024" xmlns="http://www.w3.org/2000/svg" width="200" height="200"><path d="M0 512a512 512 0 1 0 1024 0A512 512 0 1 0 0 512Z" fill="#FC011A"/><path d="M544.045 616.267c32.075-39.454 41.924-71.499 29.606-96.165-14.788-27.106-34.515-49.303-69.06-54.242-2.44 22.196-4.91 41.924-7.379 54.242 17.258 14.787 32.045 24.666 39.454 36.984 9.849 14.788-2.47 36.985-19.727 36.985-34.515 0-61.65-29.576-56.711-64.12 0-7.38 0-12.319 2.47-19.698 17.257-78.908-34.546-106.014-93.727-106.014-41.893 0-83.817 7.379-125.74 9.849 4.938-34.545 34.514-37.015 64.12-37.015 49.302-2.44 96.165-4.91 145.468-9.849 17.257-2.47 36.984-4.939 34.515-29.575H295.002c4.94-12.348 9.879-22.197 17.258-37.015-19.727-9.848-36.985-17.227-59.151-29.575-12.349 69.03-54.272 91.256-118.363 69.03-4.939 56.711 39.454 34.544 69.03 46.863-39.454 49.302-73.969 93.696-113.423 142.998 36.984 7.41 59.181-19.697 93.696-36.984-14.788 76.438-27.106 145.468-41.924 214.528 29.606 7.409 54.242-4.94 66.56-34.515 7.41-19.727 9.879-39.454 17.288-56.712 22.196-69.03 96.165-118.362 172.574-101.105-2.44 9.879-2.44 17.258-4.91 27.106-19.726 0-39.453 0-56.71 2.5-32.046 4.91-59.182 19.727-66.56 54.212-7.41 32.075 2.439 59.211 29.575 78.908 39.454 27.136 86.317 37.015 138.09 37.015 4.938-27.106 7.378-54.242 12.347-83.848 12.318 7.409 19.697 12.348 29.576 14.788 71.5 39.454 145.468 73.999 229.316 83.847 81.347 9.879 152.877-14.787 209.588-73.969 4.94-4.939 9.849-14.787 12.349-22.196-138.12 73.969-263.861 51.802-387.163-17.258zM388.698 453.512c-51.772 19.727-103.544 39.454-152.877 56.741-4.909-34.545 0-51.802 36.985-59.181 27.136-7.409 56.741-7.409 83.847-7.409h12.348c29.576 0 19.697 9.849 19.697 9.849zM381.32 596.54c-4.94 24.667-7.41 49.303-12.349 73.97h-12.318c-2.47 0-2.47 0-4.94-2.47-2.469 0-4.908-2.47-4.908-2.47s-2.47 0-2.47-2.44c0 0-2.47 0-2.47-2.47 0 0-2.47 0-2.47-2.469h-2.469l-2.47-2.47c-2.47 0-2.47-2.47-2.47-2.47-2.439-2.469-4.908-4.939-4.908-7.408l-2.47-2.44s0-2.47-2.47-2.47c-2.47-4.939-2.47-12.348-2.47-17.257v-2.47c2.47-27.105 24.667-34.514 61.652-24.666z" fill="#FFF"/><path d="M901.602 335.18c-27.106 2.469-51.802 2.469-83.848 4.908 12.349-17.257 19.727-27.105 27.106-39.454-19.697-9.848-36.954-17.257-54.212-24.636-29.605 19.727-32.075 61.65-71.529 69.03-4.94-22.197-7.379-44.394-9.848-64.12-51.803 7.408-54.242 12.348-44.394 66.59H585.97c0 32.045 7.409 39.454 41.924 39.454h71.499c0 2.47 2.47 7.408 2.47 9.848-14.788 4.94-32.046 9.879-46.833 17.288-14.818 7.378-39.454 17.257-41.924 29.575-12.348 54.242-17.257 110.953-24.666 170.165 73.969 46.833 155.346 39.454 241.633 27.106 4.94-32.076 7.41-59.182 12.349-86.318 2.47-27.105 9.848-54.241 9.848-81.377 2.47-39.455-12.348-56.712-49.302-64.09-14.788-2.47-32.076-4.94-46.863-7.41 0-2.47-2.47-4.939-2.47-7.379 14.818-4.939 29.606-9.878 46.863-12.348 27.106-4.94 54.242-4.94 78.908-9.848 12.348-7.41 29.576-12.348 22.197-36.985zm-130.71 263.83c-41.894 17.257-81.348 12.348-120.803 0 0-2.47 2.47-4.94 4.94-7.41 2.44-2.469 2.44-4.908 4.909-7.378l2.47-2.47 2.47-2.47 2.469-2.469c2.47-2.47 4.94-2.47 7.409-4.94 0 0 2.44 0 2.44-2.469 4.939-2.44 7.408-2.44 12.348-4.909h51.772c9.878 0 19.727 2.47 32.045 4.91-2.47 0 29.606 7.408-2.47 29.605zm-4.91-76.439s-2.47 0 0 0h-7.409c-4.94 0-7.379 2.47-12.348 2.47-7.379 2.47-17.227 2.47-24.636 4.91l-51.803 7.408c-4.909 0-7.378 2.47-12.318 2.47V527.51c0-2.47 0-4.94 2.47-7.41 4.94-9.848 12.348-14.787 24.666-19.726 2.47 0 2.47 0 4.94-2.47H706.8c24.666-2.47 49.303 0 73.969 0 36.984 0-2.47 19.727-14.788 24.666zm17.258-71.499c-39.455 7.379-78.909 14.758-115.893 22.167-4.94-22.167 4.94-34.515 29.575-39.455 44.394-12.318 71.53-7.378 86.318 17.288zm-273.71-32.075 7.41-59.181c44.363 9.878 71.499 56.711 59.18 103.574-12.348-7.409-22.196-14.788-32.075-22.197-9.848-7.378-22.197-12.348-34.515-22.196zM319.67 643.373c2.47 2.47 2.47 4.94 4.939 7.41 0-2.47-2.47-4.94-4.94-7.38zm49.302 27.136c-19.727-4.94-34.515-9.848-44.363-19.727 9.848 9.879 24.636 17.258 44.363 19.727z" fill="#FFF"/><path d="M659.938 581.752c-2.47 2.47-4.91 4.94-4.91 7.38 0-2.44 2.44-4.91 4.91-7.38zm9.878-41.923c-4.939 0-7.408 3.523-12.348 3.523 4.94-3.523 7.41-3.523 12.348-3.523zm91.227-17.258c0 2.47 0 2.47 0 0-4.94 2.47-9.849 2.47-14.788 4.94 4.94-2.47 9.849-2.47 14.788-4.94 0 2.47 0 2.47 0 0zm4.879 1.265s-7.89 0 0 0c-7.89 0 0 0 0 0zm12.378-25.961c-24.666 0-49.302-7.921-73.969 0h-7.409 7.41c24.666-7.921 51.802 0 73.968 0z" fill="#FFF"/></svg>